0
SECTION
2
HEADER
9
$INSUNITS
70
4
9
$ACADVER
1
AC1014
9
$HANDSEED
5
FFFF
0
ENDSEC
0
SECTION
2
TABLES
0
TABLE
2
VPORT
5
8
100
AcDbSymbolTable
0
ENDTAB
0
TABLE
2
LTYPE
5
5
100
AcDbSymbolTable
0
LTYPE
5
14
100
AcDbSymbolTableRecord
100
AcDbLinetypeTableRecord
2
BYBLOCK
70
0
0
LTYPE
5
15
100
AcDbSymbolTableRecord
100
AcDbLinetypeTableRecord
2
BYLAYER
70
0
0
ENDTAB
0
TABLE
2
LAYER
5
2
100
AcDbSymbolTable
70
2
0
LAYER
5
50
100
AcDbSymbolTableRecord
100
AcDbLayerTableRecord
2
0
70
0
6
CONTINUOUS
0
ENDTAB
0
TABLE
2
STYLE
5
3
100
AcDbSymbolTable
70
1
0
STYLE
5
11
100
AcDbSymbolTableRecord
100
AcDbTextStyleTableRecord
2
STANDARD
70
0
0
ENDTAB
0
TABLE
2
VIEW
5
6
100
AcDbSymbolTable
70
0
0
ENDTAB
0
TABLE
2
UCS
5
7
100
AcDbSymbolTable
70
0
0
ENDTAB
0
TABLE
2
APPID
5
9
100
AcDbSymbolTable
70
2
0
APPID
5
12
100
AcDbSymbolTableRecord
100
AcDbRegAppTableRecord
2
ACAD
70
0
0
ENDTAB
0
TABLE
2
DIMSTYLE
5
A
100
AcDbSymbolTable
70
1
0
ENDTAB
0
TABLE
2
BLOCK_RECORD
5
1
100
AcDbSymbolTable
70
1
0
BLOCK_RECORD
5
1F
100
AcDbSymbolTableRecord
100
AcDbBlockTableRecord
2
*MODEL_SPACE
0
BLOCK_RECORD
5
1B
100
AcDbSymbolTableRecord
100
AcDbBlockTableRecord
2
*PAPER_SPACE
0
ENDTAB
0
ENDSEC
0
SECTION
2
BLOCKS
0
BLOCK
5
20
100
AcDbEntity
100
AcDbBlockBegin
2
*MODEL_SPACE
0
ENDBLK
5
21
100
AcDbEntity
100
AcDbBlockEnd
0
BLOCK
5
1C
100
AcDbEntity
100
AcDbBlockBegin
2
*PAPER_SPACE
0
ENDBLK
5
1D
100
AcDbEntity
100
AcDbBlockEnd
0
ENDSEC
0
SECTION
2
ENTITIES
0
CIRCLE
5
100
100
AcDbEntity
8
0
100
AcDbCircle
10
-57.89252817132936
20
3.5000930094840044
30
0
40
1.0250000000000004
0
CIRCLE
5
101
100
AcDbEntity
8
0
100
AcDbCircle
10
-36.112528171329352
20
3.5000930094840044
30
0
40
1.0250000000000004
0
CIRCLE
5
102
100
AcDbEntity
8
0
100
AcDbCircle
10
-121.49952831735197
20
3.5000930094840044
30
0
40
1.0249999999999915
0
CIRCLE
5
103
100
AcDbEntity
8
0
100
AcDbCircle
10
-239.499528317352
20
45.500093009484033
30
0
40
1.0249999999999915
0
CIRCLE
5
104
100
AcDbEntity
8
0
100
AcDbCircle
10
-3.4995283173519653
20
45.500093009484033
30
0
40
1.0249999999999999
0
CIRCLE
5
105
100
AcDbEntity
8
0
100
AcDbCircle
10
-121.49952831735197
20
87.500093009484061
30
0
40
1.0250000000000092
0
CIRCLE
5
106
100
AcDbEntity
8
0
100
AcDbCircle
10
-4.5246545831990357
20
4.5252192753310538
30
0
40
1.024999999999997
0
CIRCLE
5
107
100
AcDbEntity
8
0
100
AcDbCircle
10
-238.47440205150488
20
4.5252192753311249
30
0
40
1.0249999999999915
0
CIRCLE
5
108
100
AcDbEntity
8
0
100
AcDbCircle
10
-4.524654583199049
20
86.474966743636941
30
0
40
1.0250000000000028
0
CIRCLE
5
109
100
AcDbEntity
8
0
100
AcDbCircle
10
-238.47440205150488
20
86.474966743636941
30
0
40
1.0249999999999915
0
CIRCLE
5
110
100
AcDbEntity
8
0
100
AcDbCircle
10
-45.499528317351967
20
64.50009300948409
30
0
40
1.5749999999999975
0
CIRCLE
5
111
100
AcDbEntity
8
0
100
AcDbCircle
10
-197.49952831735197
20
64.50009300948409
30
0
40
1.5749999999999886
0
CIRCLE
5
112
100
AcDbEntity
8
0
100
AcDbCircle
10
-45.499528317351981
20
26.500093009483976
30
0
40
1.5749999999999975
0
CIRCLE
5
113
100
AcDbEntity
8
0
100
AcDbCircle
10
-197.49952831735197
20
26.500093009483976
30
0
40
1.5749999999999886
0
CIRCLE
5
114
100
AcDbEntity
8
0
100
AcDbCircle
10
-159.49952831735195
20
45.500093009484033
30
0
40
1.5750000000000064
0
CIRCLE
5
115
100
AcDbEntity
8
0
100
AcDbCircle
10
-83.49952831735196
20
45.500093009484033
30
0
40
1.5749999999999975
0
LWPOLYLINE
5
116
100
AcDbEntity
8
0
100
AcDbPolyline
90
8
70
1
43
0.0
10
-128.49702831735198
20
80.692793009484092
10
-128.49702831735198
20
67.307393009484002
42
0.41421356237310364
10
-128.19222831735198
20
67.002593009484031
10
-114.80682831735197
20
67.002593009484002
42
0.41421356237310364
10
-114.50202831735197
20
67.307393009484002
10
-114.50202831735197
20
80.692793009484092
42
0.41421356237309503
10
-114.80682831735197
20
80.997593009484063
10
-128.19222831735198
20
80.997593009484092
42
0.41421356237311213
0
LWPOLYLINE
5
117
100
AcDbEntity
8
0
100
AcDbPolyline
90
8
70
1
43
0.0
10
-232.997028317352
20
23.692793009484063
10
-232.997028317352
20
10.307393009483974
42
0.41421356237309082
10
-232.69222831735198
20
10.002593009484002
10
-219.306828317352
20
10.002593009483975
42
0.41421356237314411
10
-219.002028317352
20
10.307393009483974
10
-219.002028317352
20
23.692793009484063
42
0.41421356237314627
10
-219.306828317352
20
23.997593009484035
10
-232.69222831735198
20
23.997593009484063
42
0.41421356237309503
0
LWPOLYLINE
5
118
100
AcDbEntity
8
0
100
AcDbPolyline
90
8
70
1
43
0.0
10
-213.99702831735198
20
23.692793009484063
10
-213.99702831735198
20
10.307393009483974
42
0.41421356237314411
10
-213.69222831735198
20
10.002593009484002
10
-200.30682831735197
20
10.002593009483975
42
0.41421356237309287
10
-200.00202831735197
20
10.307393009483974
10
-200.00202831735197
20
23.692793009484063
42
0.41421356237309503
10
-200.30682831735197
20
23.997593009484035
10
-213.69222831735198
20
23.997593009484063
42
0.41421356237314627
0
LWPOLYLINE
5
119
100
AcDbEntity
8
0
100
AcDbPolyline
90
8
70
1
43
0.0
10
-194.99702831735198
20
23.692793009484063
10
-194.99702831735198
20
10.307393009483974
42
0.41421356237314411
10
-194.69222831735198
20
10.002593009484002
10
-181.306828317352
20
10.002593009483975
42
0.41421356237309287
10
-181.002028317352
20
10.307393009483974
10
-181.002028317352
20
23.692793009484063
42
0.41421356237309503
10
-181.306828317352
20
23.997593009484035
10
-194.69222831735198
20
23.997593009484063
42
0.41421356237314627
0
LWPOLYLINE
5
120
100
AcDbEntity
8
0
100
AcDbPolyline
90
8
70
1
43
0.0
10
-175.99702831735198
20
23.692793009484063
10
-175.99702831735198
20
10.307393009483974
42
0.41421356237309082
10
-175.69222831735198
20
10.002593009484002
10
-162.30682831735197
20
10.002593009483975
42
0.41421356237314411
10
-162.002028317352
20
10.307393009483974
10
-162.00202831735197
20
23.692793009484063
42
0.41421356237314627
10
-162.30682831735197
20
23.997593009484035
10
-175.69222831735198
20
23.997593009484063
42
0.41421356237309503
0
LWPOLYLINE
5
121
100
AcDbEntity
8
0
100
AcDbPolyline
90
8
70
1
43
0.0
10
-156.99702831735198
20
23.692793009484063
10
-156.99702831735198
20
10.307393009483974
42
0.414213562373142
10
-156.69222831735195
20
10.002593009484002
10
-143.30682831735197
20
10.002593009483975
42
0.414213562373142
10
-143.00202831735197
20
10.307393009483974
10
-143.00202831735197
20
23.692793009484063
42
0.41421356237313345
10
-143.30682831735197
20
23.997593009484035
10
-156.69222831735195
20
23.997593009484063
42
0.41421356237313345
0
LWPOLYLINE
5
122
100
AcDbEntity
8
0
100
AcDbPolyline
90
8
70
1
43
0.0
10
-137.99702831735198
20
23.692793009484063
10
-137.99702831735198
20
10.307393009483974
42
0.414213562373142
10
-137.69222831735198
20
10.002593009484002
10
-124.30682831735197
20
10.002593009483975
42
0.41421356237302887
10
-124.00202831735199
20
10.307393009483974
10
-124.00202831735199
20
23.692793009484063
42
0.41421356237310786
10
-124.30682831735197
20
23.997593009484035
10
-137.69222831735198
20
23.997593009484063
42
0.41421356237313345
0
LWPOLYLINE
5
123
100
AcDbEntity
8
0
100
AcDbPolyline
90
8
70
1
43
0.0
10
-118.99702831735198
20
23.692793009484063
10
-118.99702831735198
20
10.307393009483974
42
0.41421356237302887
10
-118.69222831735198
20
10.002593009484002
10
-105.30682831735197
20
10.002593009483975
42
0.414213562373142
10
-105.00202831735197
20
10.307393009483974
10
-105.00202831735197
20
23.692793009484063
42
0.41421356237313345
10
-105.30682831735197
20
23.997593009484035
10
-118.69222831735198
20
23.997593009484063
42
0.41421356237304807
0
LWPOLYLINE
5
124
100
AcDbEntity
8
0
100
AcDbPolyline
90
8
70
1
43
0.0
10
-99.99702831735199
20
23.692793009484063
10
-99.99702831735199
20
10.307393009483974
42
0.41421356237302887
10
-99.692228317351976
20
10.002593009484002
10
-86.306828317351986
20
10.002593009483975
42
0.414213562373142
10
-86.002028317352
20
10.307393009483974
10
-86.002028317352
20
23.692793009484063
42
0.41421356237313345
10
-86.306828317351986
20
23.997593009484035
10
-99.692228317351976
20
23.997593009484063
42
0.41421356237304807
0
LWPOLYLINE
5
125
100
AcDbEntity
8
0
100
AcDbPolyline
90
8
70
1
43
0.0
10
-80.997028317351976
20
23.692793009484063
10
-80.997028317351976
20
10.307393009483974
42
0.41421356237302887
10
-80.692228317351962
20
10.002593009484002
10
-67.306828317351986
20
10.002593009483975
42
0.41421356237308221
10
-67.002028317351986
20
10.307393009483974
10
-67.002028317351986
20
23.692793009484063
42
0.41421356237312068
10
-67.306828317351986
20
23.997593009484035
10
-80.692228317351962
20
23.997593009484063
42
0.41421356237304807
0
LWPOLYLINE
5
126
100
AcDbEntity
8
0
100
AcDbPolyline
90
8
70
1
43
0.0
10
-61.997028317351983
20
23.692793009484063
10
-61.997028317351983
20
10.307393009483974
42
0.41421356237308221
10
-61.692228317351983
20
10.002593009484002
10
-48.306828317351986
20
10.002593009483975
42
0.41421356237308221
10
-48.002028317351986
20
10.307393009483974
10
-48.002028317351986
20
23.692793009484063
42
0.41421356237308221
10
-48.306828317351986
20
23.997593009484035
10
-61.692228317351983
20
23.997593009484063
42
0.41421356237308221
0
LWPOLYLINE
5
127
100
AcDbEntity
8
0
100
AcDbPolyline
90
8
70
1
43
0.0
10
-42.997028317351976
20
23.692793009484063
10
-42.997028317351976
20
10.307393009483974
42
0.41421356237308221
10
-42.692228317351983
20
10.002593009484002
10
-29.306828317351979
20
10.002593009483975
42
0.41421356237309287
10
-29.002028317351982
20
10.307393009483974
10
-29.002028317351972
20
23.692793009484063
42
0.41421356237309503
10
-29.306828317351979
20
23.997593009484035
10
-42.692228317351983
20
23.997593009484063
42
0.41421356237308221
0
LWPOLYLINE
5
128
100
AcDbEntity
8
0
100
AcDbPolyline
90
8
70
1
43
0.0
10
-23.997028317351976
20
23.692793009484063
10
-23.997028317351976
20
10.307393009483974
42
0.41421356237309503
10
-23.692228317351976
20
10.002593009484002
10
-10.306828317351979
20
10.002593009483975
42
0.41421356237310147
10
-10.002028317351979
20
10.307393009483974
10
-10.002028317351979
20
23.692793009484063
42
0.41421356237309287
10
-10.306828317351977
20
23.997593009484035
10
-23.692228317351972
20
23.997593009484063
42
0.41421356237309082
0
LWPOLYLINE
5
129
100
AcDbEntity
8
0
100
AcDbPolyline
90
8
70
1
43
0.0
10
-232.99702831735198
20
42.692793009483978
10
-232.99702831735198
20
29.307393009484031
42
0.41421356237313772
10
-232.69222831735195
20
29.002593009484059
10
-219.30682831735197
20
29.002593009484031
42
0.41421356237309503
10
-219.00202831735197
20
29.307393009484031
10
-219.00202831735197
20
42.692793009483971
42
0.41421356237309503
10
-219.30682831735197
20
42.997593009484021
10
-232.69222831735195
20
42.997593009483978
42
0.41421356237313772
0
LWPOLYLINE
5
130
100
AcDbEntity
8
0
100
AcDbPolyline
90
8
70
1
43
0.0
10
-213.99702831735195
20
42.692793009483978
10
-213.99702831735195
20
29.307393009484031
42
0.41421356237308649
10
-213.69222831735192
20
29.002593009484059
10
-200.30682831735194
20
29.002593009484031
42
0.41421356237314627
10
-200.00202831735194
20
29.307393009484031
10
-200.00202831735194
20
42.692793009483971
42
0.41421356237314627
10
-200.30682831735194
20
42.997593009484021
10
-213.69222831735192
20
42.997593009483978
42
0.41421356237308649
0
LWPOLYLINE
5
131
100
AcDbEntity
8
0
100
AcDbPolyline
90
8
70
1
43
0.0
10
-194.99702831735195
20
42.692793009483978
10
-194.99702831735195
20
29.307393009484031
42
0.41421356237308649
10
-194.69222831735195
20
29.002593009484059
10
-181.30682831735197
20
29.002593009484031
42
0.41421356237314627
10
-181.00202831735197
20
29.307393009484031
10
-181.00202831735197
20
42.692793009483971
42
0.41421356237314627
10
-181.30682831735197
20
42.997593009484021
10
-194.69222831735195
20
42.997593009483978
42
0.41421356237308649
0
LWPOLYLINE
5
132
100
AcDbEntity
8
0
100
AcDbPolyline
90
8
70
1
43
0.0
10
-175.99702831735198
20
42.692793009483978
10
-175.99702831735198
20
29.307393009484031
42
0.41421356237308649
10
-175.69222831735198
20
29.002593009484059
10
-162.30682831735197
20
29.002593009484031
42
0.41421356237314627
10
-162.002028317352
20
29.307393009484031
10
-162.00202831735197
20
42.692793009483971
42
0.41421356237314627
10
-162.30682831735197
20
42.997593009484021
10
-175.69222831735198
20
42.997593009483978
42
0.41421356237308649
0
LWPOLYLINE
5
133
100
AcDbEntity
8
0
100
AcDbPolyline
90
8
70
1
43
0.0
10
-156.99702831735198
20
42.692793009483978
10
-156.99702831735198
20
29.307393009484031
42
0.41421356237313772
10
-156.69222831735195
20
29.002593009484059
10
-143.30682831735197
20
29.002593009484031
42
0.41421356237313345
10
-143.00202831735197
20
29.307393009484031
10
-143.00202831735197
20
42.692793009483971
42
0.41421356237311213
10
-143.30682831735197
20
42.997593009484021
10
-156.69222831735195
20
42.997593009483978
42
0.41421356237314627
0
LWPOLYLINE
5
134
100
AcDbEntity
8
0
100
AcDbPolyline
90
8
70
1
43
0.0
10
-137.99702831735198
20
42.692793009483978
10
-137.99702831735198
20
29.307393009484031
42
0.41421356237313772
10
-137.69222831735198
20
29.002593009484059
10
-124.30682831735197
20
29.002593009484031
42
0.41421356237304807
10
-124.00202831735199
20
29.307393009484031
10
-124.00202831735199
20
42.692793009483971
42
0.41421356237310364
10
-124.30682831735197
20
42.997593009484021
10
-137.69222831735198
20
42.997593009483978
42
0.41421356237314627
0
LWPOLYLINE
5
135
100
AcDbEntity
8
0
100
AcDbPolyline
90
8
70
1
43
0.0
10
-118.99702831735198
20
42.692793009483978
10
-118.99702831735198
20
29.307393009484031
42
0.41421356237309503
10
-118.69222831735198
20
29.002593009484059
10
-105.30682831735197
20
29.002593009484031
42
0.41421356237313345
10
-105.00202831735197
20
29.307393009484031
10
-105.00202831735197
20
42.692793009483971
42
0.41421356237311213
10
-105.30682831735197
20
42.997593009484021
10
-118.69222831735198
20
42.997593009483978
42
0.41421356237302676
0
LWPOLYLINE
5
136
100
AcDbEntity
8
0
100
AcDbPolyline
90
8
70
1
43
0.0
10
-99.997028317351976
20
42.692793009483978
10
-99.997028317351976
20
29.307393009484031
42
0.41421356237309503
10
-99.692228317351976
20
29.002593009484059
10
-86.306828317351986
20
29.002593009484031
42
0.41421356237313345
10
-86.002028317351972
20
29.307393009484031
10
-86.002028317352
20
42.692793009483971
42
0.41421356237311213
10
-86.306828317351986
20
42.997593009484021
10
-99.692228317351976
20
42.997593009483978
42
0.41421356237302676
0
LWPOLYLINE
5
137
100
AcDbEntity
8
0
100
AcDbPolyline
90
8
70
1
43
0.0
10
-80.997028317351976
20
42.692793009483978
10
-80.997028317351976
20
29.307393009484031
42
0.41421356237308221
10
-80.692228317351962
20
29.002593009484059
10
-67.306828317351972
20
29.002593009484031
42
0.41421356237309503
10
-67.002028317351986
20
29.307393009484031
10
-67.002028317351972
20
42.692793009483971
42
0.41421356237311213
10
-67.306828317351972
20
42.997593009484021
10
-80.692228317351962
20
42.997593009483978
42
0.41421356237302676
0
LWPOLYLINE
5
138
100
AcDbEntity
8
0
100
AcDbPolyline
90
8
70
1
43
0.0
10
-61.997028317351976
20
42.692793009483978
10
-61.997028317351976
20
29.307393009484031
42
0.41421356237309082
10
-61.692228317351976
20
29.002593009484059
10
-48.306828317351972
20
29.002593009484031
42
0.41421356237309503
10
-48.002028317351979
20
29.307393009484031
10
-48.002028317351979
20
42.692793009483971
42
0.41421356237310364
10
-48.306828317351972
20
42.997593009484021
10
-61.692228317351976
20
42.997593009483978
42
0.41421356237311213
0
LWPOLYLINE
5
139
100
AcDbEntity
8
0
100
AcDbPolyline
90
8
70
1
43
0.0
10
-42.997028317351969
20
42.692793009483978
10
-42.997028317351969
20
29.307393009484031
42
0.41421356237309082
10
-42.692228317351976
20
29.002593009484059
10
-29.306828317351972
20
29.002593009484031
42
0.41421356237309503
10
-29.002028317351972
20
29.307393009484031
10
-29.002028317351964
20
42.692793009483964
42
0.41421356237310364
10
-29.306828317351972
20
42.997593009484021
10
-42.692228317351976
20
42.997593009483978
42
0.41421356237311213
0
LWPOLYLINE
5
140
100
AcDbEntity
8
0
100
AcDbPolyline
90
8
70
1
43
0.0
10
-23.997028317351969
20
42.692793009483978
10
-23.997028317351969
20
29.307393009484031
42
0.41421356237308649
10
-23.692228317351969
20
29.002593009484059
10
-10.30682831735197
20
29.002593009484031
42
0.4142135623730972
10
-10.00202831735197
20
29.307393009484031
10
-10.00202831735197
20
42.692793009483971
42
0.41421356237311635
10
-10.306828317351968
20
42.997593009484021
10
-23.692228317351965
20
42.997593009483978
42
0.41421356237309503
0
LWPOLYLINE
5
141
100
AcDbEntity
8
0
100
AcDbPolyline
90
8
70
1
43
0.0
10
-232.99702831735198
20
61.692793009484035
10
-232.99702831735198
20
48.307393009484016
42
0.41421356237313772
10
-232.69222831735195
20
48.002593009483974
10
-219.30682831735197
20
48.002593009484016
42
0.41421356237308649
10
-219.00202831735197
20
48.307393009484016
10
-219.00202831735197
20
61.692793009484028
42
0.41421356237309503
10
-219.30682831735197
20
61.997593009484007
10
-232.69222831735195
20
61.997593009484035
42
0.41421356237313772
0
LWPOLYLINE
5
142
100
AcDbEntity
8
0
100
AcDbPolyline
90
8
70
1
43
0.0
10
-213.99702831735195
20
61.692793009484035
10
-213.99702831735195
20
48.307393009484016
42
0.41421356237308649
10
-213.69222831735192
20
48.002593009483974
10
-200.30682831735194
20
48.002593009484016
42
0.41421356237313772
10
-200.00202831735194
20
48.307393009484016
10
-200.00202831735194
20
61.692793009484028
42
0.41421356237314627
10
-200.30682831735194
20
61.997593009484007
10
-213.69222831735192
20
61.997593009484035
42
0.41421356237308649
0
LWPOLYLINE
5
143
100
AcDbEntity
8
0
100
AcDbPolyline
90
8
70
1
43
0.0
10
-194.99702831735195
20
61.692793009484035
10
-194.99702831735195
20
48.307393009484016
42
0.41421356237308649
10
-194.69222831735195
20
48.002593009483974
10
-181.30682831735197
20
48.002593009484016
42
0.41421356237313772
10
-181.00202831735197
20
48.307393009484016
10
-181.00202831735197
20
61.692793009484028
42
0.41421356237314627
10
-181.30682831735197
20
61.997593009484007
10
-194.69222831735195
20
61.997593009484035
42
0.41421356237308649
0
LWPOLYLINE
5
144
100
AcDbEntity
8
0
100
AcDbPolyline
90
8
70
1
43
0.0
10
-175.99702831735192
20
61.692793009484035
10
-175.99702831735192
20
48.307393009484016
42
0.41421356237308649
10
-175.69222831735198
20
48.002593009483974
10
-162.30682831735197
20
48.002593009484016
42
0.41421356237313772
10
-162.00202831735197
20
48.307393009484016
10
-162.00202831735197
20
61.692793009484028
42
0.41421356237314627
10
-162.30682831735197
20
61.997593009484007
10
-175.69222831735198
20
61.997593009484035
42
0.41421356237308649
0
LWPOLYLINE
5
145
100
AcDbEntity
8
0
100
AcDbPolyline
90
8
70
1
43
0.0
10
-156.99702831735198
20
61.692793009484035
10
-156.99702831735198
20
48.307393009484016
42
0.41421356237310364
10
-156.69222831735192
20
48.002593009483974
10
-143.30682831735197
20
48.002593009484016
42
0.41421356237302676
10
-143.00202831735197
20
48.307393009484016
10
-143.00202831735197
20
61.692793009484028
42
0.41421356237310364
10
-143.30682831735197
20
61.997593009484007
10
-156.69222831735192
20
61.997593009484035
42
0.41421356237314627
0
LWPOLYLINE
5
146
100
AcDbEntity
8
0
100
AcDbPolyline
90
8
70
1
43
0.0
10
-137.99702831735198
20
61.692793009484035
10
-137.99702831735198
20
48.307393009484016
42
0.41421356237309503
10
-137.69222831735195
20
48.002593009483974
10
-124.30682831735196
20
48.002593009484016
42
0.41421356237314627
10
-124.00202831735197
20
48.307393009484016
10
-124.00202831735197
20
61.692793009484028
42
0.41421356237311213
10
-124.30682831735196
20
61.997593009484007
10
-137.69222831735195
20
61.997593009484035
42
0.41421356237302676
0
LWPOLYLINE
5
147
100
AcDbEntity
8
0
100
AcDbPolyline
90
8
70
1
43
0.0
10
-118.99702831735196
20
61.692793009484035
10
-118.99702831735196
20
48.307393009484016
42
0.41421356237310364
10
-118.69222831735195
20
48.002593009483974
10
-105.30682831735194
20
48.002593009484016
42
0.41421356237302676
10
-105.00202831735196
20
48.307393009484016
10
-105.00202831735196
20
61.692793009484028
42
0.41421356237310364
10
-105.30682831735194
20
61.997593009484007
10
-118.69222831735195
20
61.997593009484035
42
0.41421356237314627
0
LWPOLYLINE
5
148
100
AcDbEntity
8
0
100
AcDbPolyline
90
8
70
1
43
0.0
10
-99.997028317351976
20
61.692793009484035
10
-99.997028317351976
20
48.307393009484016
42
0.41421356237310364
10
-99.692228317351962
20
48.002593009483974
10
-86.306828317351972
20
48.002593009484016
42
0.41421356237302676
10
-86.002028317351972
20
48.307393009484016
10
-86.002028317351972
20
61.692793009484028
42
0.41421356237310364
10
-86.306828317351972
20
61.997593009484007
10
-99.692228317351962
20
61.997593009484035
42
0.41421356237314627
0
LWPOLYLINE
5
149
100
AcDbEntity
8
0
100
AcDbPolyline
90
8
70
1
43
0.0
10
-80.997028317351976
20
61.692793009484035
10
-80.997028317351976
20
48.307393009484016
42
0.41421356237309503
10
-80.692228317351962
20
48.002593009483974
10
-67.306828317351972
20
48.002593009484016
42
0.41421356237308649
10
-67.002028317351972
20
48.307393009484016
10
-67.002028317351957
20
61.692793009484028
42
0.41421356237311213
10
-67.306828317351972
20
61.997593009484007
10
-80.692228317351962
20
61.997593009484035
42
0.41421356237302676
0
LWPOLYLINE
5
150
100
AcDbEntity
8
0
100
AcDbPolyline
90
8
70
1
43
0.0
10
-61.997028317351962
20
61.692793009484035
10
-61.997028317351962
20
48.307393009484016
42
0.41421356237308649
10
-61.692228317351969
20
48.002593009483974
10
-48.306828317351965
20
48.002593009484016
42
0.41421356237308649
10
-48.002028317351972
20
48.307393009484016
10
-48.002028317351972
20
61.692793009484028
42
0.41421356237309503
10
-48.306828317351965
20
61.997593009484007
10
-61.692228317351969
20
61.997593009484035
42
0.41421356237308649
0
LWPOLYLINE
5
151
100
AcDbEntity
8
0
100
AcDbPolyline
90
8
70
1
43
0.0
10
-42.997028317351962
20
61.692793009484035
10
-42.997028317351962
20
48.307393009484016
42
0.41421356237308649
10
-42.692228317351962
20
48.002593009483974
10
-29.306828317351965
20
48.002593009484016
42
0.41421356237309503
10
-29.002028317351964
20
48.307393009484016
10
-29.002028317351957
20
61.692793009484028
42
0.41421356237310786
10
-29.306828317351965
20
61.997593009484007
10
-42.692228317351962
20
61.997593009484035
42
0.41421356237308649
0
LWPOLYLINE
5
152
100
AcDbEntity
8
0
100
AcDbPolyline
90
8
70
1
43
0.0
10
-23.997028317351958
20
61.692793009484035
10
-23.997028317351958
20
48.307393009484016
42
0.41421356237309503
10
-23.692228317351962
20
48.002593009483974
10
-10.306828317351961
20
48.002593009484016
42
0.41421356237309931
10
-10.002028317351961
20
48.307393009484016
10
-10.002028317351961
20
61.692793009484028
42
0.41421356237311635
10
-10.306828317351959
20
61.997593009484007
10
-23.692228317351955
20
61.997593009484035
42
0.41421356237309503
0
LWPOLYLINE
5
153
100
AcDbEntity
8
0
100
AcDbPolyline
90
8
70
1
43
0.0
10
-232.99702831735198
20
80.692793009484092
10
-232.99702831735198
20
67.307393009484002
42
0.41421356237313772
10
-232.69222831735195
20
67.002593009484031
10
-219.30682831735197
20
67.002593009484002
42
0.41421356237308649
10
-219.00202831735197
20
67.307393009484002
10
-219.00202831735197
20
80.692793009484092
42
0.41421356237309503
10
-219.30682831735197
20
80.997593009484063
10
-232.69222831735195
20
80.997593009484092
42
0.41421356237314627
0
LWPOLYLINE
5
154
100
AcDbEntity
8
0
100
AcDbPolyline
90
8
70
1
43
0.0
10
-213.99702831735195
20
80.692793009484092
10
-213.99702831735195
20
67.307393009484002
42
0.41421356237308649
10
-213.69222831735192
20
67.002593009484031
10
-200.30682831735194
20
67.002593009484002
42
0.41421356237313772
10
-200.00202831735194
20
67.307393009484002
10
-200.00202831735194
20
80.692793009484092
42
0.41421356237318041
10
-200.30682831735194
20
80.997593009484063
10
-213.69222831735192
20
80.997593009484092
42
0.41421356237309503
0
LWPOLYLINE
5
155
100
AcDbEntity
8
0
100
AcDbPolyline
90
8
70
1
43
0.0
10
-194.99702831735195
20
80.692793009484092
10
-194.99702831735195
20
67.307393009484002
42
0.41421356237308649
10
-194.69222831735195
20
67.002593009484031
10
-181.30682831735197
20
67.002593009484002
42
0.41421356237313772
10
-181.00202831735197
20
67.307393009484002
10
-181.00202831735197
20
80.692793009484092
42
0.41421356237318041
10
-181.30682831735197
20
80.997593009484063
10
-194.69222831735195
20
80.997593009484092
42
0.41421356237309503
0
LWPOLYLINE
5
156
100
AcDbEntity
8
0
100
AcDbPolyline
90
8
70
1
43
0.0
10
-175.99702831735192
20
80.692793009484092
10
-175.99702831735192
20
67.307393009484002
42
0.41421356237308649
10
-175.69222831735198
20
67.002593009484031
10
-162.30682831735197
20
67.002593009484002
42
0.41421356237313772
10
-162.00202831735197
20
67.307393009484002
10
-162.00202831735197
20
80.692793009484092
42
0.41421356237318041
10
-162.30682831735197
20
80.997593009484063
10
-175.69222831735198
20
80.997593009484092
42
0.41421356237309503
0
LWPOLYLINE
5
157
100
AcDbEntity
8
0
100
AcDbPolyline
90
8
70
1
43
0.0
10
-156.99702831735198
20
80.692793009484092
10
-156.99702831735198
20
67.307393009484002
42
0.41421356237314627
10
-156.69222831735192
20
67.002593009484031
10
-143.30682831735197
20
67.002593009484002
42
0.41421356237302676
10
-143.00202831735197
20
67.307393009484002
10
-143.00202831735197
20
80.692793009484092
42
0.4142135623730609
10
-143.30682831735197
20
80.997593009484063
10
-156.69222831735192
20
80.997593009484092
42
0.41421356237307799
0
LWPOLYLINE
5
158
100
AcDbEntity
8
0
100
AcDbPolyline
90
8
70
1
43
0.0
10
-99.997028317351948
20
80.692793009484092
10
-99.997028317351948
20
67.307393009484002
42
0.41421356237314627
10
-99.692228317351962
20
67.002593009484031
10
-86.306828317351972
20
67.002593009484002
42
0.41421356237302676
10
-86.002028317351957
20
67.307393009484002
10
-86.002028317351972
20
80.692793009484092
42
0.4142135623730609
10
-86.306828317351972
20
80.997593009484063
10
-99.692228317351962
20
80.997593009484092
42
0.41421356237307799
0
LWPOLYLINE
5
159
100
AcDbEntity
8
0
100
AcDbPolyline
90
8
70
1
43
0.0
10
-80.997028317351933
20
80.692793009484092
10
-80.997028317351933
20
67.307393009484002
42
0.41421356237311213
10
-80.692228317351947
20
67.002593009484031
10
-67.306828317351957
20
67.002593009484002
42
0.41421356237311213
10
-67.002028317351957
20
67.307393009484002
10
-67.002028317351957
20
80.692793009484092
42
0.41421356237311213
10
-67.306828317351957
20
80.997593009484063
10
-80.692228317351962
20
80.997593009484092
42
0.41421356237309503
0
LWPOLYLINE
5
160
100
AcDbEntity
8
0
100
AcDbPolyline
90
8
70
1
43
0.0
10
-61.997028317351955
20
80.692793009484092
10
-61.997028317351955
20
67.307393009484002
42
0.41421356237311213
10
-61.692228317351962
20
67.002593009484031
10
-48.306828317351957
20
67.002593009484002
42
0.41421356237311213
10
-48.002028317351957
20
67.307393009484002
10
-48.002028317351957
20
80.692793009484092
42
0.41421356237313772
10
-48.306828317351957
20
80.997593009484063
10
-61.692228317351962
20
80.997593009484092
42
0.41421356237302676
0
LWPOLYLINE
5
161
100
AcDbEntity
8
0
100
AcDbPolyline
90
8
70
1
43
0.0
10
-42.997028317351955
20
80.692793009484092
10
-42.997028317351955
20
67.307393009484002
42
0.41421356237311213
10
-42.692228317351955
20
67.002593009484031
10
-29.306828317351954
20
67.002593009484002
42
0.41421356237309503
10
-29.002028317351957
20
67.307393009484002
10
-29.002028317351947
20
80.692793009484092
42
0.41421356237313772
10
-29.306828317351954
20
80.997593009484063
10
-42.692228317351955
20
80.997593009484092
42
0.41421356237302676
0
LWPOLYLINE
5
162
100
AcDbEntity
8
0
100
AcDbPolyline
90
8
70
1
43
0.0
10
-23.997028317351948
20
80.692793009484092
10
-23.997028317351948
20
67.307393009484002
42
0.41421356237309082
10
-23.692228317351951
20
67.002593009484031
10
-10.306828317351952
20
67.002593009484002
42
0.41421356237309931
10
-10.002028317351952
20
67.307393009484002
10
-10.002028317351952
20
80.692793009484092
42
0.41421356237312917
10
-10.30682831735195
20
80.997593009484063
10
-23.692228317351947
20
80.997593009484092
42
0.41421356237302254
0
LWPOLYLINE
5
163
100
AcDbEntity
8
0
100
AcDbPolyline
90
8
70
1
43
0.0
10
-6.9995283173519702
20
91.000093009483976
42
-0.41421356237309548
10
0.00047168264803998383
20
84.000093009483976
10
0.00047168264800445669
20
7.0000930094840372
42
-0.41421356237309609
10
-6.9995283173519596
20
9.3009484061212788e-05
10
-235.99952831735186
20
9.3009484025685651e-05
42
-0.41421356237309803
10
-242.99952831735195
20
7.0000930094840186
10
-242.99952831735195
20
84.000093009483976
42
-0.41421356237309503
10
-235.99952831735192
20
91.000093009484004
0
CIRCLE
5
164
100
AcDbEntity
8
0
100
AcDbCircle
10
-57.89252817132936
20
3.5000930094840044
30
0
40
1.0250000000000004
0
CIRCLE
5
165
100
AcDbEntity
8
0
100
AcDbCircle
10
-36.112528171329352
20
3.5000930094840044
30
0
40
1.0250000000000004
0
CIRCLE
5
166
100
AcDbEntity
8
0
100
AcDbCircle
10
-121.49952831735197
20
3.5000930094840044
30
0
40
1.0249999999999915
0
CIRCLE
5
167
100
AcDbEntity
8
0
100
AcDbCircle
10
-239.499528317352
20
45.500093009484033
30
0
40
1.0249999999999915
0
CIRCLE
5
168
100
AcDbEntity
8
0
100
AcDbCircle
10
-3.4995283173519653
20
45.500093009484033
30
0
40
1.0249999999999999
0
CIRCLE
5
169
100
AcDbEntity
8
0
100
AcDbCircle
10
-121.49952831735197
20
87.500093009484061
30
0
40
1.0250000000000092
0
CIRCLE
5
170
100
AcDbEntity
8
0
100
AcDbCircle
10
-4.5246545831990357
20
4.5252192753310538
30
0
40
1.024999999999997
0
CIRCLE
5
171
100
AcDbEntity
8
0
100
AcDbCircle
10
-238.47440205150488
20
4.5252192753311249
30
0
40
1.0249999999999915
0
CIRCLE
5
172
100
AcDbEntity
8
0
100
AcDbCircle
10
-4.524654583199049
20
86.474966743636941
30
0
40
1.0250000000000028
0
CIRCLE
5
173
100
AcDbEntity
8
0
100
AcDbCircle
10
-238.47440205150488
20
86.474966743636941
30
0
40
1.0249999999999915
0
CIRCLE
5
174
100
AcDbEntity
8
0
100
AcDbCircle
10
-45.499528317351967
20
64.50009300948409
30
0
40
1.5749999999999975
0
CIRCLE
5
175
100
AcDbEntity
8
0
100
AcDbCircle
10
-197.49952831735197
20
64.50009300948409
30
0
40
1.5749999999999886
0
CIRCLE
5
176
100
AcDbEntity
8
0
100
AcDbCircle
10
-45.499528317351981
20
26.500093009483976
30
0
40
1.5749999999999975
0
CIRCLE
5
177
100
AcDbEntity
8
0
100
AcDbCircle
10
-197.49952831735197
20
26.500093009483976
30
0
40
1.5749999999999886
0
CIRCLE
5
178
100
AcDbEntity
8
0
100
AcDbCircle
10
-159.49952831735195
20
45.500093009484033
30
0
40
1.5750000000000064
0
CIRCLE
5
179
100
AcDbEntity
8
0
100
AcDbCircle
10
-83.49952831735196
20
45.500093009484033
30
0
40
1.5749999999999975
0
LWPOLYLINE
5
180
100
AcDbEntity
8
0
100
AcDbPolyline
90
8
70
1
43
0.0
10
-128.49702831735198
20
67.307393009484002
10
-128.49702831735192
20
80.692793009484092
42
-0.41421356237309503
10
-128.19222831735198
20
80.997593009484063
10
-114.80682831735196
20
80.997593009484092
42
-0.41421356237307799
10
-114.50202831735197
20
80.692793009484092
10
-114.502028317352
20
67.307393009484002
42
-0.41421356237309503
10
-114.80682831735197
20
67.002593009484031
10
-128.19222831735198
20
67.002593009484002
42
-0.41421356237309503
0
LWPOLYLINE
5
181
100
AcDbEntity
8
0
100
AcDbPolyline
90
8
70
1
43
0.0
10
-232.997028317352
20
10.307393009483974
10
-232.99702831735198
20
23.692793009484063
42
-0.41421356237309503
10
-232.69222831735198
20
23.997593009484035
10
-219.306828317352
20
23.997593009484071
42
-0.41421356237309503
10
-219.002028317352
20
23.692793009484063
10
-219.00202831735203
20
10.307393009483974
42
-0.41421356237309503
10
-219.306828317352
20
10.002593009484002
10
-232.69222831735198
20
10.002593009483967
42
-0.41421356237309503
0
LWPOLYLINE
5
182
100
AcDbEntity
8
0
100
AcDbPolyline
90
8
70
1
43
0.0
10
-213.99702831735198
20
10.307393009483974
10
-213.99702831735195
20
23.692793009484063
42
-0.41421356237309503
10
-213.69222831735198
20
23.997593009484035
10
-200.30682831735197
20
23.997593009484071
42
-0.41421356237309503
10
-200.00202831735197
20
23.692793009484063
10
-200.00202831735203
20
10.307393009483974
42
-0.41421356237309503
10
-200.30682831735197
20
10.002593009484002
10
-213.69222831735198
20
10.002593009483967
42
-0.41421356237309503
0
LWPOLYLINE
5
183
100
AcDbEntity
8
0
100
AcDbPolyline
90
8
70
1
43
0.0
10
-194.99702831735198
20
10.307393009483974
10
-194.99702831735195
20
23.692793009484063
42
-0.41421356237309503
10
-194.69222831735198
20
23.997593009484035
10
-181.306828317352
20
23.997593009484071
42
-0.41421356237309503
10
-181.002028317352
20
23.692793009484063
10
-181.00202831735203
20
10.307393009483974
42
-0.41421356237309503
10
-181.306828317352
20
10.002593009484002
10
-194.69222831735198
20
10.002593009483967
42
-0.41421356237309503
0
LWPOLYLINE
5
184
100
AcDbEntity
8
0
100
AcDbPolyline
90
8
70
1
43
0.0
10
-175.99702831735198
20
10.307393009483974
10
-175.99702831735192
20
23.692793009484063
42
-0.41421356237309503
10
-175.69222831735198
20
23.997593009484035
10
-162.30682831735197
20
23.997593009484035
42
-0.41421356237309503
10
-162.002028317352
20
23.692793009484063
10
-162.002028317352
20
10.307393009483974
42
-0.41421356237309503
10
-162.30682831735197
20
10.002593009484002
10
-175.69222831735198
20
10.002593009483967
42
-0.41421356237309503
0
LWPOLYLINE
5
185
100
AcDbEntity
8
0
100
AcDbPolyline
90
8
70
1
43
0.0
10
-156.99702831735198
20
10.307393009483974
10
-156.99702831735192
20
23.692793009484063
42
-0.41421356237309503
10
-156.69222831735195
20
23.997593009484035
10
-143.30682831735197
20
23.997593009484053
42
-0.41421356237309503
10
-143.00202831735197
20
23.692793009484063
10
-143.002028317352
20
10.307393009483974
42
-0.41421356237309503
10
-143.30682831735197
20
10.002593009484002
10
-156.69222831735195
20
10.002593009483967
42
-0.41421356237309503
0
LWPOLYLINE
5
186
100
AcDbEntity
8
0
100
AcDbPolyline
90
8
70
1
43
0.0
10
-137.99702831735198
20
10.307393009483974
10
-137.99702831735195
20
23.692793009484063
42
-0.41421356237309503
10
-137.69222831735198
20
23.997593009484035
10
-124.30682831735197
20
23.997593009484053
42
-0.41421356237309503
10
-124.00202831735199
20
23.692793009484063
10
-124.002028317352
20
10.307393009483974
42
-0.41421356237309503
10
-124.30682831735197
20
10.002593009484002
10
-137.69222831735198
20
10.002593009483967
42
-0.41421356237309503
0
LWPOLYLINE
5
187
100
AcDbEntity
8
0
100
AcDbPolyline
90
8
70
1
43
0.0
10
-118.99702831735198
20
10.307393009483974
10
-118.99702831735195
20
23.692793009484063
42
-0.41421356237309503
10
-118.69222831735198
20
23.997593009484035
10
-105.30682831735197
20
23.997593009484053
42
-0.41421356237309503
10
-105.00202831735197
20
23.692793009484063
10
-105.002028317352
20
10.307393009483974
42
-0.41421356237309503
10
-105.30682831735197
20
10.002593009484002
10
-118.69222831735198
20
10.002593009483967
42
-0.41421356237309503
0
LWPOLYLINE
5
188
100
AcDbEntity
8
0
100
AcDbPolyline
90
8
70
1
43
0.0
10
-99.99702831735199
20
10.307393009483974
10
-99.997028317351948
20
23.692793009484063
42
-0.41421356237309503
10
-99.692228317351976
20
23.997593009484035
10
-86.306828317351986
20
23.997593009484053
42
-0.41421356237309503
10
-86.002028317352
20
23.692793009484063
10
-86.002028317352014
20
10.307393009483974
42
-0.41421356237309503
10
-86.306828317351986
20
10.002593009484002
10
-99.692228317351976
20
10.002593009483967
42
-0.41421356237309503
0
LWPOLYLINE
5
189
100
AcDbEntity
8
0
100
AcDbPolyline
90
8
70
1
43
0.0
10
-80.997028317351976
20
10.307393009483974
10
-80.997028317351933
20
23.692793009484063
42
-0.41421356237309503
10
-80.692228317351962
20
23.997593009484035
10
-67.306828317351986
20
23.997593009484063
42
-0.41421356237310364
10
-67.002028317351986
20
23.692793009484063
10
-67.002028317352014
20
10.307393009483974
42
-0.41421356237309503
10
-67.306828317351986
20
10.002593009484002
10
-80.692228317351962
20
10.002593009483967
42
-0.41421356237309503
0
LWPOLYLINE
5
190
100
AcDbEntity
8
0
100
AcDbPolyline
90
8
70
1
43
0.0
10
-61.997028317351983
20
10.307393009483974
10
-61.997028317351955
20
23.692793009484063
42
-0.41421356237309503
10
-61.692228317351983
20
23.997593009484035
10
-48.306828317351986
20
23.997593009484063
42
-0.41421356237309503
10
-48.002028317351986
20
23.692793009484063
10
-48.002028317352014
20
10.307393009483974
42
-0.41421356237309503
10
-48.306828317351986
20
10.002593009484002
10
-61.692228317351983
20
10.002593009483975
42
-0.41421356237309503
0
LWPOLYLINE
5
191
100
AcDbEntity
8
0
100
AcDbPolyline
90
8
70
1
43
0.0
10
-42.997028317351976
20
10.307393009483974
10
-42.997028317351955
20
23.692793009484063
42
-0.41421356237309503
10
-42.692228317351983
20
23.997593009484035
10
-29.306828317351975
20
23.997593009484063
42
-0.41421356237309931
10
-29.002028317351972
20
23.692793009484063
10
-29.002028317352007
20
10.307393009483974
42
-0.41421356237309503
10
-29.306828317351979
20
10.002593009484002
10
-42.692228317351983
20
10.002593009483975
42
-0.41421356237309503
0
LWPOLYLINE
5
192
100
AcDbEntity
8
0
100
AcDbPolyline
90
8
70
1
43
0.0
10
-23.997028317351976
20
10.307393009483974
10
-23.997028317351948
20
23.692793009484063
42
-0.41421356237309503
10
-23.692228317351976
20
23.997593009484035
10
-10.306828317351979
20
23.997593009484063
42
-0.41421356237309931
10
-10.002028317351977
20
23.692793009484063
10
-10.002028317352005
20
10.307393009483976
42
-0.41421356237309931
10
-10.306828317351979
20
10.002593009484002
10
-23.692228317351972
20
10.002593009483975
42
-0.41421356237309931
0
LWPOLYLINE
5
193
100
AcDbEntity
8
0
100
AcDbPolyline
90
8
70
1
43
0.0
10
-232.99702831735198
20
29.307393009484031
10
-232.997028317352
20
42.692793009483978
42
-0.41421356237309503
10
-232.69222831735195
20
42.997593009484021
10
-219.30682831735197
20
42.997593009483985
42
-0.41421356237309503
10
-219.00202831735197
20
42.692793009483978
10
-219.002028317352
20
29.307393009484031
42
-0.41421356237309503
10
-219.30682831735197
20
29.002593009484059
10
-232.69222831735195
20
29.002593009484023
42
-0.41421356237309503
0
LWPOLYLINE
5
194
100
AcDbEntity
8
0
100
AcDbPolyline
90
8
70
1
43
0.0
10
-213.99702831735195
20
29.307393009484031
10
-213.99702831735198
20
42.692793009483978
42
-0.41421356237309503
10
-213.69222831735192
20
42.997593009484021
10
-200.30682831735194
20
42.997593009483985
42
-0.41421356237309503
10
-200.00202831735194
20
42.692793009483978
10
-200.00202831735197
20
29.307393009484031
42
-0.41421356237309503
10
-200.30682831735194
20
29.002593009484059
10
-213.69222831735192
20
29.002593009484023
42
-0.41421356237309503
0
LWPOLYLINE
5
195
100
AcDbEntity
8
0
100
AcDbPolyline
90
8
70
1
43
0.0
10
-194.99702831735195
20
29.307393009484031
10
-194.99702831735198
20
42.692793009483978
42
-0.41421356237309503
10
-194.69222831735195
20
42.997593009484021
10
-181.30682831735197
20
42.997593009483985
42
-0.41421356237309503
10
-181.00202831735197
20
42.692793009483978
10
-181.002028317352
20
29.307393009484031
42
-0.41421356237309503
10
-181.30682831735197
20
29.002593009484059
10
-194.69222831735195
20
29.002593009484023
42
-0.41421356237309503
0
LWPOLYLINE
5
196
100
AcDbEntity
8
0
100
AcDbPolyline
90
8
70
1
43
0.0
10
-175.99702831735198
20
29.307393009484031
10
-175.997028317352
20
42.692793009483978
42
-0.41421356237309503
10
-175.69222831735198
20
42.997593009484021
10
-162.30682831735197
20
42.99759300948395
42
-0.41421356237309503
10
-162.002028317352
20
42.692793009483978
10
-162.002028317352
20
29.307393009484031
42
-0.41421356237309503
10
-162.30682831735197
20
29.002593009484059
10
-175.69222831735198
20
29.002593009484023
42
-0.41421356237309503
0
LWPOLYLINE
5
197
100
AcDbEntity
8
0
100
AcDbPolyline
90
8
70
1
43
0.0
10
-156.99702831735198
20
29.307393009484031
10
-156.997028317352
20
42.692793009483978
42
-0.41421356237309503
10
-156.69222831735195
20
42.997593009484021
10
-143.30682831735197
20
42.997593009483964
42
-0.41421356237309503
10
-143.00202831735197
20
42.692793009483978
10
-143.002028317352
20
29.307393009484031
42
-0.41421356237309503
10
-143.30682831735197
20
29.002593009484059
10
-156.69222831735195
20
29.002593009484023
42
-0.41421356237309503
0
LWPOLYLINE
5
198
100
AcDbEntity
8
0
100
AcDbPolyline
90
8
70
1
43
0.0
10
-137.99702831735198
20
29.307393009484031
10
-137.997028317352
20
42.692793009483978
42
-0.41421356237309503
10
-137.69222831735198
20
42.997593009484021
10
-124.30682831735197
20
42.997593009483964
42
-0.41421356237309503
10
-124.00202831735199
20
42.692793009483978
10
-124.002028317352
20
29.307393009484031
42
-0.41421356237309503
10
-124.30682831735197
20
29.002593009484059
10
-137.69222831735198
20
29.002593009484023
42
-0.41421356237309503
0
LWPOLYLINE
5
199
100
AcDbEntity
8
0
100
AcDbPolyline
90
8
70
1
43
0.0
10
-118.99702831735198
20
29.307393009484031
10
-118.997028317352
20
42.692793009483978
42
-0.41421356237309503
10
-118.69222831735198
20
42.997593009484021
10
-105.30682831735197
20
42.997593009483964
42
-0.41421356237309503
10
-105.00202831735197
20
42.692793009483978
10
-105.002028317352
20
29.307393009484031
42
-0.41421356237309503
10
-105.30682831735197
20
29.002593009484059
10
-118.69222831735198
20
29.002593009484023
42
-0.41421356237309503
0
LWPOLYLINE
5
200
100
AcDbEntity
8
0
100
AcDbPolyline
90
8
70
1
43
0.0
10
-99.997028317351976
20
29.307393009484031
10
-99.997028317352033
20
42.692793009483978
42
-0.41421356237309503
10
-99.692228317351976
20
42.997593009484021
10
-86.306828317352
20
42.997593009483985
42
-0.41421356237311213
10
-86.002028317351972
20
42.692793009483978
10
-86.002028317352014
20
29.307393009484031
42
-0.41421356237309503
10
-86.306828317351986
20
29.002593009484059
10
-99.692228317352004
20
29.002593009484041
42
-0.41421356237307799
0
LWPOLYLINE
5
201
100
AcDbEntity
8
0
100
AcDbPolyline
90
8
70
1
43
0.0
10
-80.997028317351976
20
29.307393009484031
10
-80.997028317352004
20
42.692793009483978
42
-0.41421356237309503
10
-80.692228317351962
20
42.997593009484021
10
-67.306828317351972
20
42.997593009483978
42
-0.41421356237310364
10
-67.002028317351972
20
42.692793009483978
10
-67.002028317352
20
29.307393009484031
42
-0.41421356237309503
10
-67.306828317351972
20
29.002593009484059
10
-80.692228317351962
20
29.002593009484023
42
-0.41421356237309503
0
LWPOLYLINE
5
202
100
AcDbEntity
8
0
100
AcDbPolyline
90
8
70
1
43
0.0
10
-61.997028317351976
20
29.307393009484031
10
-61.997028317352019
20
42.692793009483978
42
-0.41421356237309503
10
-61.692228317351976
20
42.997593009484021
10
-48.306828317351972
20
42.997593009483978
42
-0.41421356237309503
10
-48.002028317351979
20
42.692793009483978
10
-48.002028317352
20
29.307393009484031
42
-0.41421356237309503
10
-48.306828317351972
20
29.002593009484059
10
-61.692228317351976
20
29.002593009484031
42
-0.41421356237309503
0
LWPOLYLINE
5
203
100
AcDbEntity
8
0
100
AcDbPolyline
90
8
70
1
43
0.0
10
-42.997028317351969
20
29.307393009484031
10
-42.997028317352019
20
42.692793009483978
42
-0.41421356237309503
10
-42.692228317351976
20
42.997593009484021
10
-29.306828317351968
20
42.997593009483978
42
-0.41421356237309931
10
-29.002028317351964
20
42.692793009483978
10
-29.002028317352
20
29.307393009484031
42
-0.41421356237309503
10
-29.306828317351972
20
29.002593009484059
10
-42.692228317351976
20
29.002593009484031
42
-0.41421356237309503
0
LWPOLYLINE
5
204
100
AcDbEntity
8
0
100
AcDbPolyline
90
8
70
1
43
0.0
10
-23.997028317351969
20
29.307393009484031
10
-23.997028317352012
20
42.692793009483978
42
-0.41421356237309503
10
-23.692228317351969
20
42.997593009484021
10
-10.30682831735197
20
42.997593009483978
42
-0.41421356237309931
10
-10.002028317351968
20
42.692793009483978
10
-10.002028317351996
20
29.307393009484031
42
-0.4142135623730972
10
-10.30682831735197
20
29.002593009484059
10
-23.692228317351969
20
29.002593009484031
42
-0.41421356237309503
0
LWPOLYLINE
5
205
100
AcDbEntity
8
0
100
AcDbPolyline
90
8
70
1
43
0.0
10
-232.99702831735198
20
48.307393009484016
10
-232.99702831735192
20
61.692793009484035
42
-0.41421356237309503
10
-232.69222831735195
20
61.997593009484007
10
-219.30682831735197
20
61.997593009484042
42
-0.41421356237309503
10
-219.00202831735197
20
61.692793009484035
10
-219.00202831735191
20
48.307393009484016
42
-0.41421356237309503
10
-219.30682831735197
20
48.002593009483974
10
-232.69222831735195
20
48.002593009484009
42
-0.41421356237309503
0
LWPOLYLINE
5
206
100
AcDbEntity
8
0
100
AcDbPolyline
90
8
70
1
43
0.0
10
-213.99702831735195
20
48.307393009484016
10
-213.99702831735192
20
61.692793009484035
42
-0.41421356237309503
10
-213.69222831735192
20
61.997593009484007
10
-200.30682831735194
20
61.997593009484042
42
-0.41421356237309503
10
-200.00202831735194
20
61.692793009484035
10
-200.00202831735191
20
48.307393009484016
42
-0.41421356237309503
10
-200.30682831735194
20
48.002593009483974
10
-213.69222831735192
20
48.002593009484009
42
-0.41421356237309503
0
LWPOLYLINE
5
207
100
AcDbEntity
8
0
100
AcDbPolyline
90
8
70
1
43
0.0
10
-194.99702831735195
20
48.307393009484016
10
-194.99702831735192
20
61.692793009484035
42
-0.41421356237309503
10
-194.69222831735195
20
61.997593009484007
10
-181.30682831735197
20
61.997593009484042
42
-0.41421356237309503
10
-181.00202831735197
20
61.692793009484035
10
-181.00202831735191
20
48.307393009484016
42
-0.41421356237309503
10
-181.30682831735197
20
48.002593009483974
10
-194.69222831735195
20
48.002593009484009
42
-0.41421356237309503
0
LWPOLYLINE
5
208
100
AcDbEntity
8
0
100
AcDbPolyline
90
8
70
1
43
0.0
10
-175.99702831735192
20
48.307393009484016
10
-175.99702831735192
20
61.692793009484035
42
-0.41421356237309503
10
-175.69222831735198
20
61.997593009484007
10
-162.30682831735197
20
61.997593009484042
42
-0.41421356237309503
10
-162.00202831735197
20
61.692793009484035
10
-162.00202831735194
20
48.307393009484016
42
-0.41421356237309503
10
-162.30682831735197
20
48.002593009483974
10
-175.69222831735198
20
48.002593009484045
42
-0.41421356237309503
0
LWPOLYLINE
5
209
100
AcDbEntity
8
0
100
AcDbPolyline
90
8
70
1
43
0.0
10
-156.99702831735198
20
48.307393009484016
10
-156.99702831735189
20
61.692793009484035
42
-0.41421356237309503
10
-156.69222831735192
20
61.997593009484007
10
-143.30682831735197
20
61.997593009484021
42
-0.41421356237309503
10
-143.00202831735197
20
61.692793009484035
10
-143.00202831735191
20
48.307393009484016
42
-0.41421356237309503
10
-143.30682831735197
20
48.002593009483974
10
-156.69222831735192
20
48.002593009483974
42
-0.41421356237309503
0
LWPOLYLINE
5
210
100
AcDbEntity
8
0
100
AcDbPolyline
90
8
70
1
43
0.0
10
-137.99702831735198
20
48.307393009484016
10
-137.99702831735192
20
61.692793009484035
42
-0.41421356237309503
10
-137.69222831735195
20
61.997593009484007
10
-124.30682831735196
20
61.997593009484021
42
-0.41421356237309503
10
-124.00202831735197
20
61.692793009484035
10
-124.00202831735191
20
48.307393009484016
42
-0.41421356237309503
10
-124.30682831735196
20
48.002593009483974
10
-137.69222831735195
20
48.002593009484009
42
-0.41421356237309503
0
LWPOLYLINE
5
211
100
AcDbEntity
8
0
100
AcDbPolyline
90
8
70
1
43
0.0
10
-118.99702831735196
20
48.307393009484016
10
-118.99702831735192
20
61.692793009484035
42
-0.41421356237309503
10
-118.69222831735195
20
61.997593009484007
10
-105.30682831735194
20
61.997593009484021
42
-0.41421356237309503
10
-105.00202831735196
20
61.692793009484035
10
-105.00202831735191
20
48.307393009484016
42
-0.41421356237309503
10
-105.30682831735194
20
48.002593009483974
10
-118.69222831735195
20
48.002593009484009
42
-0.41421356237309503
0
LWPOLYLINE
5
212
100
AcDbEntity
8
0
100
AcDbPolyline
90
8
70
1
43
0.0
10
-99.997028317351976
20
48.307393009484016
10
-99.997028317351933
20
61.692793009484035
42
-0.41421356237309503
10
-99.692228317351962
20
61.997593009484007
10
-86.306828317351972
20
61.997593009484021
42
-0.41421356237309503
10
-86.002028317351972
20
61.692793009484035
10
-86.002028317351915
20
48.307393009484016
42
-0.41421356237309503
10
-86.306828317351972
20
48.002593009483974
10
-99.692228317351962
20
48.002593009484009
42
-0.41421356237309503
0
LWPOLYLINE
5
213
100
AcDbEntity
8
0
100
AcDbPolyline
90
8
70
1
43
0.0
10
-80.997028317351976
20
48.307393009484016
10
-80.997028317351933
20
61.692793009484035
42
-0.41421356237309503
10
-80.692228317351962
20
61.997593009484007
10
-67.306828317351972
20
61.997593009484035
42
-0.41421356237311213
10
-67.002028317351957
20
61.692793009484035
10
-67.002028317351929
20
48.307393009484016
42
-0.41421356237309503
10
-67.306828317351972
20
48.002593009483974
10
-80.692228317351962
20
48.002593009484009
42
-0.41421356237309503
0
LWPOLYLINE
5
214
100
AcDbEntity
8
0
100
AcDbPolyline
90
8
70
1
43
0.0
10
-61.997028317351962
20
48.307393009484016
10
-61.997028317351941
20
61.692793009484035
42
-0.41421356237309503
10
-61.692228317351969
20
61.997593009484007
10
-48.306828317351972
20
61.997593009484035
42
-0.41421356237310364
10
-48.002028317351972
20
61.692793009484035
10
-48.002028317351922
20
48.307393009484016
42
-0.41421356237309503
10
-48.306828317351965
20
48.002593009483974
10
-61.692228317351969
20
48.002593009484016
42
-0.41421356237309503
0
LWPOLYLINE
5
215
100
AcDbEntity
8
0
100
AcDbPolyline
90
8
70
1
43
0.0
10
-42.997028317351962
20
48.307393009484016
10
-42.997028317351933
20
61.692793009484035
42
-0.41421356237309503
10
-42.692228317351962
20
61.997593009484007
10
-29.306828317351965
20
61.997593009484035
42
-0.41421356237310364
10
-29.002028317351957
20
61.692793009484035
10
-29.002028317351922
20
48.307393009484016
42
-0.41421356237309503
10
-29.306828317351965
20
48.002593009483974
10
-42.692228317351962
20
48.002593009484016
42
-0.41421356237309503
0
LWPOLYLINE
5
216
100
AcDbEntity
8
0
100
AcDbPolyline
90
8
70
1
43
0.0
10
-23.997028317351958
20
48.307393009484016
10
-23.997028317351933
20
61.692793009484035
42
-0.41421356237309503
10
-23.692228317351962
20
61.997593009484007
10
-10.306828317351965
20
61.997593009484035
42
-0.41421356237310147
10
-10.002028317351959
20
61.692793009484035
10
-10.002028317351916
20
48.307393009484016
42
-0.4142135623730972
10
-10.306828317351961
20
48.002593009483974
10
-23.692228317351955
20
48.002593009484016
42
-0.41421356237309931
0
LWPOLYLINE
5
217
100
AcDbEntity
8
0
100
AcDbPolyline
90
8
70
1
43
0.0
10
-232.99702831735198
20
67.307393009484002
10
-232.99702831735178
20
80.692793009484092
42
-0.41421356237309503
10
-232.69222831735195
20
80.997593009483921
10
-219.30682831735197
20
80.997593009484092
42
-0.41421356237309503
10
-219.00202831735197
20
80.692793009484092
10
-219.002028317352
20
67.307393009484002
42
-0.41421356237309503
10
-219.30682831735197
20
67.002593009484031
10
-232.69222831735195
20
67.002593009484002
42
-0.41421356237309503
0
LWPOLYLINE
5
218
100
AcDbEntity
8
0
100
AcDbPolyline
90
8
70
1
43
0.0
10
-213.99702831735195
20
67.307393009484002
10
-213.99702831735175
20
80.692793009484092
42
-0.41421356237309503
10
-213.69222831735192
20
80.997593009483921
10
-200.30682831735194
20
80.997593009484092
42
-0.41421356237309503
10
-200.00202831735194
20
80.692793009484092
10
-200.00202831735197
20
67.307393009484002
42
-0.41421356237309503
10
-200.30682831735194
20
67.002593009484031
10
-213.69222831735192
20
67.002593009484002
42
-0.41421356237309503
0
LWPOLYLINE
5
219
100
AcDbEntity
8
0
100
AcDbPolyline
90
8
70
1
43
0.0
10
-194.99702831735195
20
67.307393009484002
10
-194.99702831735178
20
80.692793009484092
42
-0.41421356237309503
10
-194.69222831735195
20
80.997593009483921
10
-181.30682831735197
20
80.997593009484092
42
-0.41421356237309503
10
-181.00202831735197
20
80.692793009484092
10
-181.002028317352
20
67.307393009484002
42
-0.41421356237309503
10
-181.30682831735197
20
67.002593009484031
10
-194.69222831735195
20
67.002593009484002
42
-0.41421356237309503
0
LWPOLYLINE
5
220
100
AcDbEntity
8
0
100
AcDbPolyline
90
8
70
1
43
0.0
10
-175.99702831735192
20
67.307393009484002
10
-175.99702831735181
20
80.692793009484092
42
-0.41421356237309503
10
-175.69222831735198
20
80.997593009483921
10
-162.30682831735197
20
80.997593009484092
42
-0.41421356237309503
10
-162.00202831735197
20
80.692793009484092
10
-162.002028317352
20
67.307393009484002
42
-0.41421356237309503
10
-162.30682831735197
20
67.002593009484031
10
-175.69222831735198
20
67.002593009484031
42
-0.41421356237309503
0
LWPOLYLINE
5
221
100
AcDbEntity
8
0
100
AcDbPolyline
90
8
70
1
43
0.0
10
-156.99702831735198
20
67.307393009484002
10
-156.99702831735175
20
80.692793009484092
42
-0.41421356237309503
10
-156.69222831735192
20
80.997593009483921
10
-143.30682831735197
20
80.997593009484078
42
-0.41421356237309503
10
-143.00202831735197
20
80.692793009484092
10
-143.00202831735197
20
67.307393009484002
42
-0.41421356237309503
10
-143.30682831735197
20
67.002593009484031
10
-156.69222831735192
20
67.002593009483959
42
-0.41421356237309503
0
LWPOLYLINE
5
222
100
AcDbEntity
8
0
100
AcDbPolyline
90
8
70
1
43
0.0
10
-99.997028317351948
20
67.307393009484002
10
-99.997028317351791
20
80.692793009484092
42
-0.41421356237309503
10
-99.692228317351962
20
80.997593009483921
10
-86.306828317351972
20
80.997593009484092
42
-0.41421356237309503
10
-86.002028317351957
20
80.692793009484092
10
-86.002028317352
20
67.307393009484002
42
-0.41421356237309503
10
-86.306828317351972
20
67.002593009484031
10
-99.692228317351962
20
67.002593009484016
42
-0.41421356237309503
0
LWPOLYLINE
5
223
100
AcDbEntity
8
0
100
AcDbPolyline
90
8
70
1
43
0.0
10
-80.997028317351933
20
67.307393009484002
10
-80.997028317351791
20
80.692793009484092
42
-0.41421356237311213
10
-80.692228317351947
20
80.997593009483921
10
-67.306828317351957
20
80.997593009484092
42
-0.41421356237310364
10
-67.002028317351957
20
80.692793009484092
10
-67.002028317351986
20
67.307393009484002
42
-0.41421356237309503
10
-67.306828317351957
20
67.002593009484031
10
-80.692228317351947
20
67.002593009484031
42
-0.41421356237311213
0
LWPOLYLINE
5
224
100
AcDbEntity
8
0
100
AcDbPolyline
90
8
70
1
43
0.0
10
-61.997028317351955
20
67.307393009484002
10
-61.997028317351791
20
80.692793009484092
42
-0.41421356237309503
10
-61.692228317351962
20
80.997593009483921
10
-48.306828317351957
20
80.997593009484092
42
-0.41421356237309503
10
-48.002028317351957
20
80.692793009484092
10
-48.002028317351986
20
67.307393009484002
42
-0.41421356237309503
10
-48.306828317351957
20
67.002593009484031
10
-61.692228317351962
20
67.002593009484002
42
-0.41421356237309503
0
LWPOLYLINE
5
225
100
AcDbEntity
8
0
100
AcDbPolyline
90
8
70
1
43
0.0
10
-42.997028317351955
20
67.307393009484002
10
-42.997028317351784
20
80.692793009484092
42
-0.41421356237309503
10
-42.692228317351955
20
80.997593009483921
10
-29.30682831735195
20
80.997593009484092
42
-0.41421356237309931
10
-29.002028317351947
20
80.692793009484092
10
-29.002028317351982
20
67.307393009484002
42
-0.41421356237309503
10
-29.306828317351954
20
67.002593009484031
10
-42.692228317351955
20
67.002593009484002
42
-0.41421356237309503
0
LWPOLYLINE
5
226
100
AcDbEntity
8
0
100
AcDbPolyline
90
8
70
1
43
0.0
10
-23.997028317351948
20
67.307393009484002
10
-23.997028317351781
20
80.692793009484092
42
-0.41421356237309503
10
-23.692228317351951
20
80.997593009483921
10
-10.30682831735195
20
80.997593009484092
42
-0.4142135623730972
10
-10.00202831735195
20
80.692793009484092
10
-10.002028317351979
20
67.307393009484002
42
-0.4142135623730972
10
-10.306828317351952
20
67.002593009484031
10
-23.692228317351947
20
67.002593009484002
42
-0.41421356237309931
0
LWPOLYLINE
5
227
100
AcDbEntity
8
0
100
AcDbPolyline
90
8
70
1
43
0.0
10
0.00047168264803110205
20
7.0000930094840186
10
0.00047168264803776339
20
84.000093009483976
42
0.41421356237309503
10
-6.9995283173519596
20
91.000093009484004
10
-235.99952831735192
20
91.000093009483976
42
0.41421356237309503
10
-242.99952831735192
20
84.000093009483976
10
-242.99952831735195
20
7.0000930094840816
42
0.4142135623731007
10
-235.99952831735186
20
9.3009484061212788e-05
10
-6.9995283173519827
20
9.3009484034567436e-05
42
0.41421356237309631
0
CIRCLE
5
228
100
AcDbEntity
8
0
100
AcDbCircle
10
-57.893220862560533
20
94.50037583665052
30
0
40
1.0250000000000004
0
CIRCLE
5
229
100
AcDbEntity
8
0
100
AcDbCircle
10
-36.113220862560489
20
94.50037583665052
30
0
40
1.0250000000000004
0
CIRCLE
5
230
100
AcDbEntity
8
0
100
AcDbCircle
10
-121.50022100858311
20
94.50037583665052
30
0
40
1.0249999999999915
0
CIRCLE
5
231
100
AcDbEntity
8
0
100
AcDbCircle
10
-239.50022100858317
20
136.50037583665056
30
0
40
1.0249999999999915
0
CIRCLE
5
232
100
AcDbEntity
8
0
100
AcDbCircle
10
-3.5002210085831287
20
136.50037583665056
30
0
40
1.0249999999999999
0
CIRCLE
5
233
100
AcDbEntity
8
0
100
AcDbCircle
10
-121.50022100858311
20
178.50037583665056
30
0
40
1.0250000000000092
0
CIRCLE
5
234
100
AcDbEntity
8
0
100
AcDbCircle
10
-4.5253472744301959
20
95.525502102497612
30
0
40
1.024999999999997
0
CIRCLE
5
235
100
AcDbEntity
8
0
100
AcDbCircle
10
-238.47509474273605
20
95.52550210249764
30
0
40
1.0249999999999915
0
CIRCLE
5
236
100
AcDbEntity
8
0
100
AcDbCircle
10
-4.5253472744302137
20
177.4752495708035
30
0
40
1.0250000000000028
0
CIRCLE
5
237
100
AcDbEntity
8
0
100
AcDbCircle
10
-238.47509474273605
20
177.4752495708035
30
0
40
1.0249999999999915
0
LWPOLYLINE
5
238
100
AcDbEntity
8
0
100
AcDbPolyline
90
16
70
1
43
0.0
10
-52.893220862560533
20
98.000375836650534
10
-52.893220862560533
20
91.000375836650505
10
-236.00022100858314
20
91.000375836650576
42
-0.41421356237309503
10
-243.00022100858311
20
98.000375836650534
10
-243.00022100858317
20
175.00037583665056
42
-0.41421356237309503
10
-236.00022100858314
20
182.00037583665056
10
-7.0002210085831305
20
182.00037583665053
42
-0.4142135623730952
10
-0.00022100858313223171
20
175.00037583665056
10
-0.00022100858309670457
20
98.000375836650534
42
-0.41421356237309503
10
-7.0002210085831251
20
91.000375836650505
10
-41.113220862560489
20
91.000375836650505
10
-41.113220862560489
20
98.000375836650534
10
-7.0002210085831251
20
98.000375836650534
10
-7.0002210085831251
20
175.00037583665056
10
-236.00022100858314
20
175.00037583665056
10
-236.00022100858314
20
98.000375836650534
0
ENDSEC
0
SECTION
2
OBJECTS
0
DICTIONARY
5
C
100
AcDbDictionary
3
ACAD_GROUP
350
D
3
ACAD_MLINESTYLE
350
17
0
DICTIONARY
5
D
100
AcDbDictionary
0
DICTIONARY
5
1A
330
C
100
AcDbDictionary
0
DICTIONARY
5
17
100
AcDbDictionary
0
ENDSEC
0
EOF
