0
SECTION
2
HEADER
9
$INSUNITS
70
4
9
$ACADVER
1
AC1014
9
$HANDSEED
5
FFFF
0
ENDSEC
0
SECTION
2
TABLES
0
TABLE
2
VPORT
5
8
100
AcDbSymbolTable
0
ENDTAB
0
TABLE
2
LTYPE
5
5
100
AcDbSymbolTable
0
LTYPE
5
14
100
AcDbSymbolTableRecord
100
AcDbLinetypeTableRecord
2
BYBLOCK
70
0
0
LTYPE
5
15
100
AcDbSymbolTableRecord
100
AcDbLinetypeTableRecord
2
BYLAYER
70
0
0
ENDTAB
0
TABLE
2
LAYER
5
2
100
AcDbSymbolTable
70
2
0
LAYER
5
50
100
AcDbSymbolTableRecord
100
AcDbLayerTableRecord
2
0
70
0
6
CONTINUOUS
0
ENDTAB
0
TABLE
2
STYLE
5
3
100
AcDbSymbolTable
70
1
0
STYLE
5
11
100
AcDbSymbolTableRecord
100
AcDbTextStyleTableRecord
2
STANDARD
70
0
0
ENDTAB
0
TABLE
2
VIEW
5
6
100
AcDbSymbolTable
70
0
0
ENDTAB
0
TABLE
2
UCS
5
7
100
AcDbSymbolTable
70
0
0
ENDTAB
0
TABLE
2
APPID
5
9
100
AcDbSymbolTable
70
2
0
APPID
5
12
100
AcDbSymbolTableRecord
100
AcDbRegAppTableRecord
2
ACAD
70
0
0
ENDTAB
0
TABLE
2
DIMSTYLE
5
A
100
AcDbSymbolTable
70
1
0
ENDTAB
0
TABLE
2
BLOCK_RECORD
5
1
100
AcDbSymbolTable
70
1
0
BLOCK_RECORD
5
1F
100
AcDbSymbolTableRecord
100
AcDbBlockTableRecord
2
*MODEL_SPACE
0
BLOCK_RECORD
5
1B
100
AcDbSymbolTableRecord
100
AcDbBlockTableRecord
2
*PAPER_SPACE
0
ENDTAB
0
ENDSEC
0
SECTION
2
BLOCKS
0
BLOCK
5
20
100
AcDbEntity
100
AcDbBlockBegin
2
*MODEL_SPACE
0
ENDBLK
5
21
100
AcDbEntity
100
AcDbBlockEnd
0
BLOCK
5
1C
100
AcDbEntity
100
AcDbBlockBegin
2
*PAPER_SPACE
0
ENDBLK
5
1D
100
AcDbEntity
100
AcDbBlockEnd
0
ENDSEC
0
SECTION
2
ENTITIES
0
CIRCLE
5
100
100
AcDbEntity
8
0
100
AcDbCircle
10
-57.893220862560533
20
94.50037583665052
30
0
40
1.0250000000000004
0
CIRCLE
5
101
100
AcDbEntity
8
0
100
AcDbCircle
10
-36.113220862560489
20
94.50037583665052
30
0
40
1.0250000000000004
0
CIRCLE
5
102
100
AcDbEntity
8
0
100
AcDbCircle
10
-121.50022100858311
20
94.50037583665052
30
0
40
1.0249999999999915
0
CIRCLE
5
103
100
AcDbEntity
8
0
100
AcDbCircle
10
-239.50022100858317
20
136.50037583665056
30
0
40
1.0249999999999915
0
CIRCLE
5
104
100
AcDbEntity
8
0
100
AcDbCircle
10
-3.5002210085831287
20
136.50037583665056
30
0
40
1.0249999999999999
0
CIRCLE
5
105
100
AcDbEntity
8
0
100
AcDbCircle
10
-121.50022100858311
20
178.50037583665056
30
0
40
1.0250000000000092
0
CIRCLE
5
106
100
AcDbEntity
8
0
100
AcDbCircle
10
-4.5253472744301959
20
95.525502102497612
30
0
40
1.024999999999997
0
CIRCLE
5
107
100
AcDbEntity
8
0
100
AcDbCircle
10
-238.47509474273605
20
95.52550210249764
30
0
40
1.0249999999999915
0
CIRCLE
5
108
100
AcDbEntity
8
0
100
AcDbCircle
10
-4.5253472744302137
20
177.4752495708035
30
0
40
1.0250000000000028
0
CIRCLE
5
109
100
AcDbEntity
8
0
100
AcDbCircle
10
-238.47509474273605
20
177.4752495708035
30
0
40
1.0249999999999915
0
LWPOLYLINE
5
110
100
AcDbEntity
8
0
100
AcDbPolyline
90
16
70
1
43
0.0
10
-52.893220862560533
20
98.000375836650534
10
-52.893220862560533
20
91.000375836650505
10
-236.00022100858314
20
91.000375836650576
42
-0.41421356237309503
10
-243.00022100858311
20
98.000375836650534
10
-243.00022100858317
20
175.00037583665056
42
-0.41421356237309503
10
-236.00022100858314
20
182.00037583665056
10
-7.0002210085831305
20
182.00037583665053
42
-0.4142135623730952
10
-0.00022100858313223171
20
175.00037583665056
10
-0.00022100858309670457
20
98.000375836650534
42
-0.41421356237309503
10
-7.0002210085831251
20
91.000375836650505
10
-41.113220862560489
20
91.000375836650505
10
-41.113220862560489
20
98.000375836650534
10
-7.0002210085831251
20
98.000375836650534
10
-7.0002210085831251
20
175.00037583665056
10
-236.00022100858314
20
175.00037583665056
10
-236.00022100858314
20
98.000375836650534
0
CIRCLE
5
111
100
AcDbEntity
8
0
100
AcDbCircle
10
-300.89334352701849
20
94.500443829608045
30
0
40
1.0250000000000004
0
CIRCLE
5
112
100
AcDbEntity
8
0
100
AcDbCircle
10
-279.1133435270184
20
94.500443829608045
30
0
40
1.0250000000000004
0
CIRCLE
5
113
100
AcDbEntity
8
0
100
AcDbCircle
10
-364.50034367304107
20
94.500443829608045
30
0
40
1.0249999999999915
0
CIRCLE
5
114
100
AcDbEntity
8
0
100
AcDbCircle
10
-482.50034367304113
20
136.50044382960806
30
0
40
1.0249999999999915
0
CIRCLE
5
115
100
AcDbEntity
8
0
100
AcDbCircle
10
-246.50034367304107
20
136.50044382960806
30
0
40
1.0249999999999999
0
CIRCLE
5
116
100
AcDbEntity
8
0
100
AcDbCircle
10
-364.50034367304107
20
178.50044382960812
30
0
40
1.0250000000000092
0
CIRCLE
5
117
100
AcDbEntity
8
0
100
AcDbCircle
10
-247.52546993888814
20
95.525570095455123
30
0
40
1.024999999999997
0
CIRCLE
5
118
100
AcDbEntity
8
0
100
AcDbCircle
10
-481.47521740719401
20
95.525570095455166
30
0
40
1.0249999999999915
0
CIRCLE
5
119
100
AcDbEntity
8
0
100
AcDbCircle
10
-247.52546993888814
20
177.475317563761
30
0
40
1.0250000000000028
0
CIRCLE
5
120
100
AcDbEntity
8
0
100
AcDbCircle
10
-481.47521740719401
20
177.475317563761
30
0
40
1.0249999999999915
0
LWPOLYLINE
5
121
100
AcDbEntity
8
0
100
AcDbPolyline
90
8
70
1
43
0.0
10
-479.00034367304107
20
91.000443829608102
42
-0.41421356237309503
10
-486.00034367304102
20
98.000443829608059
10
-486.00034367304102
20
175.00044382960809
42
-0.41421356237309503
10
-479.00034367304107
20
182.00044382960809
10
-250.00034367304107
20
182.00044382960809
42
-0.41421356237309503
10
-243.00034367304107
20
175.00044382960809
10
-243.00034367304107
20
98.000443829608059
42
-0.41421356237309653
10
-250.00034367304107
20
91.000443829608031
0
CIRCLE
5
122
100
AcDbEntity
8
0
100
AcDbCircle
10
-300.89289010993195
20
3.5004551011325091
30
0
40
1.0250000000000004
0
CIRCLE
5
123
100
AcDbEntity
8
0
100
AcDbCircle
10
-279.11289010993193
20
3.5004551011325091
30
0
40
1.0250000000000004
0
CIRCLE
5
124
100
AcDbEntity
8
0
100
AcDbCircle
10
-364.4998902559546
20
3.5004551011325269
30
0
40
1.0249999999999915
0
CIRCLE
5
125
100
AcDbEntity
8
0
100
AcDbCircle
10
-482.4998902559546
20
45.500455101132538
30
0
40
1.0249999999999915
0
CIRCLE
5
126
100
AcDbEntity
8
0
100
AcDbCircle
10
-246.49989025595457
20
45.500455101132538
30
0
40
1.0249999999999999
0
CIRCLE
5
127
100
AcDbEntity
8
0
100
AcDbCircle
10
-364.4998902559546
20
87.500455101132545
30
0
40
1.0250000000000092
0
CIRCLE
5
128
100
AcDbEntity
8
0
100
AcDbCircle
10
-247.52501652180166
20
4.5255813669795941
30
0
40
1.024999999999997
0
CIRCLE
5
129
100
AcDbEntity
8
0
100
AcDbCircle
10
-481.47476399010748
20
4.5255813669796119
30
0
40
1.0249999999999915
0
CIRCLE
5
130
100
AcDbEntity
8
0
100
AcDbCircle
10
-247.52501652180166
20
86.475328835285467
30
0
40
1.0250000000000028
0
CIRCLE
5
131
100
AcDbEntity
8
0
100
AcDbCircle
10
-481.47476399010748
20
86.475328835285467
30
0
40
1.0249999999999915
0
LINE
5
132
100
AcDbEntity
8
0
100
AcDbLine
10
-249.99989025595454
20
84.000455101132587
30
0
11
-478.9998902559546
21
84.000455101132587
31
0
0
LINE
5
133
100
AcDbEntity
8
0
100
AcDbLine
10
-249.99989025595457
20
7.0004551011325233
30
0
11
-249.99989025595454
21
84.000455101132587
31
0
0
LINE
5
134
100
AcDbEntity
8
0
100
AcDbLine
10
-478.9998902559546
20
7.0004551011325589
30
0
11
-249.99989025595457
21
7.0004551011325233
31
0
0
LINE
5
135
100
AcDbEntity
8
0
100
AcDbLine
10
-478.9998902559546
20
84.000455101132587
30
0
11
-478.9998902559546
21
7.0004551011325589
31
0
0
LWPOLYLINE
5
136
100
AcDbEntity
8
0
100
AcDbPolyline
90
8
70
1
43
0.0
10
-485.9998902559546
20
84.000455101132559
10
-485.9998902559546
20
7.0004551011325233
42
0.41421356237309354
10
-478.9998902559546
20
0.00045510113253044437
10
-249.99989025595457
20
0.00045510113249491724
42
0.41421356237309503
10
-242.9998902559546
20
7.0004551011325233
10
-242.9998902559546
20
84.000455101132559
42
0.41421356237309803
10
-249.99989025595457
20
91.000455101132545
10
-478.9998902559546
20
91.000455101132545
42
0.41421356237309653
0
CIRCLE
5
137
100
AcDbEntity
8
0
100
AcDbCircle
10
-57.89252817132936
20
3.5000930094840044
30
0
40
1.0250000000000004
0
CIRCLE
5
138
100
AcDbEntity
8
0
100
AcDbCircle
10
-36.112528171329352
20
3.5000930094840044
30
0
40
1.0250000000000004
0
CIRCLE
5
139
100
AcDbEntity
8
0
100
AcDbCircle
10
-121.49952831735197
20
3.5000930094840044
30
0
40
1.0249999999999915
0
CIRCLE
5
140
100
AcDbEntity
8
0
100
AcDbCircle
10
-239.499528317352
20
45.500093009484033
30
0
40
1.0249999999999915
0
CIRCLE
5
141
100
AcDbEntity
8
0
100
AcDbCircle
10
-3.4995283173519653
20
45.500093009484033
30
0
40
1.0249999999999999
0
CIRCLE
5
142
100
AcDbEntity
8
0
100
AcDbCircle
10
-121.49952831735197
20
87.500093009484061
30
0
40
1.0250000000000092
0
CIRCLE
5
143
100
AcDbEntity
8
0
100
AcDbCircle
10
-4.5246545831990357
20
4.5252192753310538
30
0
40
1.024999999999997
0
CIRCLE
5
144
100
AcDbEntity
8
0
100
AcDbCircle
10
-238.47440205150488
20
4.5252192753311249
30
0
40
1.0249999999999915
0
CIRCLE
5
145
100
AcDbEntity
8
0
100
AcDbCircle
10
-4.524654583199049
20
86.474966743636941
30
0
40
1.0250000000000028
0
CIRCLE
5
146
100
AcDbEntity
8
0
100
AcDbCircle
10
-238.47440205150488
20
86.474966743636941
30
0
40
1.0249999999999915
0
CIRCLE
5
147
100
AcDbEntity
8
0
100
AcDbCircle
10
-45.499528317351967
20
64.50009300948409
30
0
40
1.5749999999999975
0
CIRCLE
5
148
100
AcDbEntity
8
0
100
AcDbCircle
10
-197.49952831735197
20
64.50009300948409
30
0
40
1.5749999999999886
0
CIRCLE
5
149
100
AcDbEntity
8
0
100
AcDbCircle
10
-45.499528317351981
20
26.500093009483976
30
0
40
1.5749999999999975
0
CIRCLE
5
150
100
AcDbEntity
8
0
100
AcDbCircle
10
-197.49952831735197
20
26.500093009483976
30
0
40
1.5749999999999886
0
CIRCLE
5
151
100
AcDbEntity
8
0
100
AcDbCircle
10
-159.49952831735195
20
45.500093009484033
30
0
40
1.5750000000000064
0
CIRCLE
5
152
100
AcDbEntity
8
0
100
AcDbCircle
10
-83.49952831735196
20
45.500093009484033
30
0
40
1.5749999999999975
0
LWPOLYLINE
5
153
100
AcDbEntity
8
0
100
AcDbPolyline
90
8
70
1
43
0.0
10
0.00047168264803776339
20
84.000093009483976
10
0.00047168264800445669
20
7.0000930094839839
42
-0.41421356237309365
10
-6.9995283173519596
20
9.3009484061212788e-05
10
-235.99952831735186
20
9.300948405455145e-05
42
-0.41421356237309975
10
-242.99952831735195
20
7.0000930094840186
10
-242.99952831735195
20
84.000093009484004
42
-0.41421356237309354
10
-235.99952831735192
20
91.000093009484004
10
-6.9995283173519605
20
91.000093009483976
42
-0.41421356237309681
0
LWPOLYLINE
5
154
100
AcDbEntity
8
0
100
AcDbPolyline
90
8
70
1
43
0.0
10
-128.49702831735198
20
67.307393009484016
10
-128.49702831735192
20
80.692793009484021
42
-0.41421356237316331
10
-128.19222831735198
20
80.997593009484063
10
-114.80682831735197
20
80.997593009484092
42
-0.41421356237312917
10
-114.50202831735197
20
80.692793009484063
10
-114.502028317352
20
67.307393009484002
42
-0.41421356237309503
10
-114.80682831735197
20
67.002593009484031
10
-128.19222831735198
20
67.002593009484002
42
-0.41421356237310364
0
LWPOLYLINE
5
155
100
AcDbEntity
8
0
100
AcDbPolyline
90
8
70
1
43
0.0
10
-232.997028317352
20
10.307393009484001
10
-232.99702831735198
20
23.692793009483999
42
-0.41421356237315482
10
-232.69222831735198
20
23.997593009484032
10
-219.306828317352
20
23.997593009484071
42
-0.41421356237318041
10
-219.002028317352
20
23.692793009483974
10
-219.00202831735203
20
10.307393009483974
42
-0.41421356237309503
10
-219.306828317352
20
10.002593009484002
10
-232.69222831735198
20
10.002593009483967
42
-0.41421356237312068
0
LWPOLYLINE
5
156
100
AcDbEntity
8
0
100
AcDbPolyline
90
8
70
1
43
0.0
10
-213.99702831735198
20
10.307393009484001
10
-213.99702831735195
20
23.692793009483999
42
-0.41421356237315482
10
-213.69222831735198
20
23.997593009484032
10
-200.30682831735197
20
23.997593009484071
42
-0.41421356237318041
10
-200.00202831735197
20
23.692793009483974
10
-200.00202831735203
20
10.307393009483974
42
-0.41421356237309503
10
-200.30682831735197
20
10.002593009484002
10
-213.69222831735198
20
10.002593009483967
42
-0.41421356237312068
0
LWPOLYLINE
5
157
100
AcDbEntity
8
0
100
AcDbPolyline
90
8
70
1
43
0.0
10
-194.99702831735198
20
10.307393009484001
10
-194.99702831735195
20
23.692793009483999
42
-0.41421356237318896
10
-194.69222831735195
20
23.997593009484032
10
-181.306828317352
20
23.997593009484071
42
-0.41421356237318041
10
-181.002028317352
20
23.692793009483974
10
-181.00202831735203
20
10.307393009483974
42
-0.41421356237309503
10
-181.306828317352
20
10.002593009484002
10
-194.69222831735198
20
10.002593009483967
42
-0.41421356237312068
0
LWPOLYLINE
5
158
100
AcDbEntity
8
0
100
AcDbPolyline
90
8
70
1
43
0.0
10
-175.99702831735198
20
10.307393009484001
10
-175.99702831735192
20
23.692793009483999
42
-0.41421356237315482
10
-175.69222831735198
20
23.997593009484032
10
-162.30682831735197
20
23.997593009484035
42
-0.41421356237318041
10
-162.002028317352
20
23.692793009483974
10
-162.002028317352
20
10.307393009483974
42
-0.41421356237309503
10
-162.30682831735197
20
10.002593009484002
10
-175.69222831735198
20
10.002593009483967
42
-0.41421356237312068
0
LWPOLYLINE
5
159
100
AcDbEntity
8
0
100
AcDbPolyline
90
8
70
1
43
0.0
10
-156.99702831735198
20
10.307393009484001
10
-156.99702831735192
20
23.692793009483999
42
-0.41421356237313772
10
-156.69222831735198
20
23.997593009484035
10
-143.30682831735197
20
23.997593009484053
42
-0.41421356237318041
10
-143.00202831735197
20
23.692793009483974
10
-143.002028317352
20
10.307393009483974
42
-0.41421356237309503
10
-143.30682831735197
20
10.002593009484002
10
-156.69222831735195
20
10.002593009483967
42
-0.41421356237312068
0
LWPOLYLINE
5
160
100
AcDbEntity
8
0
100
AcDbPolyline
90
8
70
1
43
0.0
10
-137.99702831735198
20
10.307393009484001
10
-137.99702831735195
20
23.692793009483999
42
-0.41421356237315482
10
-137.69222831735198
20
23.997593009484035
10
-124.30682831735197
20
23.997593009484053
42
-0.41421356237318041
10
-124.00202831735199
20
23.692793009483974
10
-124.002028317352
20
10.307393009483974
42
-0.41421356237309503
10
-124.30682831735197
20
10.002593009484002
10
-137.69222831735198
20
10.002593009483967
42
-0.41421356237312068
0
LWPOLYLINE
5
161
100
AcDbEntity
8
0
100
AcDbPolyline
90
8
70
1
43
0.0
10
-118.99702831735198
20
10.307393009484001
10
-118.99702831735195
20
23.692793009483999
42
-0.41421356237315482
10
-118.69222831735198
20
23.997593009484035
10
-105.30682831735197
20
23.997593009484053
42
-0.41421356237318041
10
-105.00202831735197
20
23.692793009483974
10
-105.002028317352
20
10.307393009483974
42
-0.41421356237309503
10
-105.30682831735197
20
10.002593009484002
10
-118.69222831735198
20
10.002593009483967
42
-0.41421356237312068
0
LWPOLYLINE
5
162
100
AcDbEntity
8
0
100
AcDbPolyline
90
8
70
1
43
0.0
10
-99.99702831735199
20
10.307393009484001
10
-99.997028317351948
20
23.692793009483999
42
-0.41421356237315482
10
-99.692228317351976
20
23.997593009484035
10
-86.306828317351986
20
23.997593009484053
42
-0.41421356237318041
10
-86.002028317352
20
23.692793009483974
10
-86.002028317352014
20
10.307393009483974
42
-0.41421356237309503
10
-86.306828317351986
20
10.002593009484002
10
-99.692228317351976
20
10.002593009483967
42
-0.41421356237312068
0
LWPOLYLINE
5
163
100
AcDbEntity
8
0
100
AcDbPolyline
90
8
70
1
43
0.0
10
-80.99702831735199
20
10.307393009484001
10
-80.997028317351933
20
23.692793009483999
42
-0.41421356237313772
10
-80.692228317351976
20
23.997593009484035
10
-67.306828317351986
20
23.997593009484063
42
-0.41421356237318896
10
-67.002028317351986
20
23.692793009483974
10
-67.002028317352014
20
10.307393009483974
42
-0.41421356237309503
10
-67.306828317351986
20
10.002593009484002
10
-80.692228317351962
20
10.002593009483949
42
-0.41421356237312068
0
LWPOLYLINE
5
164
100
AcDbEntity
8
0
100
AcDbPolyline
90
8
70
1
43
0.0
10
-61.997028317351983
20
10.307393009484001
10
-61.997028317351962
20
23.692793009483999
42
-0.41421356237315482
10
-61.692228317351983
20
23.997593009484039
10
-48.306828317351986
20
23.997593009484063
42
-0.41421356237318041
10
-48.002028317351986
20
23.692793009483974
10
-48.002028317352014
20
10.307393009483974
42
-0.41421356237309503
10
-48.306828317351986
20
10.002593009484002
10
-61.692228317351983
20
10.002593009483975
42
-0.41421356237312068
0
LWPOLYLINE
5
165
100
AcDbEntity
8
0
100
AcDbPolyline
90
8
70
1
43
0.0
10
-42.997028317351976
20
10.307393009484001
10
-42.997028317351962
20
23.692793009483999
42
-0.41421356237317181
10
-42.692228317351962
20
23.997593009484039
10
-29.306828317351975
20
23.997593009484063
42
-0.41421356237318463
10
-29.002028317351972
20
23.692793009483974
10
-29.002028317352007
20
10.307393009483974
42
-0.41421356237309503
10
-29.306828317351979
20
10.002593009484002
10
-42.692228317351983
20
10.002593009483975
42
-0.41421356237312068
0
LWPOLYLINE
5
166
100
AcDbEntity
8
0
100
AcDbPolyline
90
8
70
1
43
0.0
10
-23.997028317351969
20
10.307393009484001
10
-23.997028317351955
20
23.692793009483999
42
-0.41421356237315482
10
-23.692228317351976
20
23.997593009484039
10
-10.306828317351977
20
23.997593009484067
42
-0.41421356237317397
10
-10.002028317351972
20
23.692793009483985
10
-10.002028317352005
20
10.307393009483974
42
-0.41421356237310364
10
-10.306828317351986
20
10.002593009484002
10
-23.692228317351976
20
10.002593009483984
42
-0.41421356237312068
0
LWPOLYLINE
5
167
100
AcDbEntity
8
0
100
AcDbPolyline
90
8
70
1
43
0.0
10
-232.99702831735198
20
29.307393009484038
10
-232.997028317352
20
42.692793009484035
42
-0.41421356237304385
10
-232.69222831735195
20
42.997593009484014
10
-219.306828317352
20
42.997593009483985
42
-0.41421356237307799
10
-219.00202831735197
20
42.692793009483992
10
-219.002028317352
20
29.307393009484031
42
-0.41421356237309503
10
-219.30682831735197
20
29.002593009484059
10
-232.69222831735195
20
29.002593009484023
42
-0.41421356237310364
0
LWPOLYLINE
5
168
100
AcDbEntity
8
0
100
AcDbPolyline
90
8
70
1
43
0.0
10
-213.99702831735195
20
29.307393009484038
10
-213.99702831735198
20
42.692793009484035
42
-0.41421356237304385
10
-213.69222831735192
20
42.997593009484021
10
-200.30682831735197
20
42.997593009483985
42
-0.41421356237307799
10
-200.00202831735194
20
42.692793009483992
10
-200.00202831735197
20
29.307393009484031
42
-0.41421356237309503
10
-200.30682831735194
20
29.002593009484059
10
-213.69222831735192
20
29.002593009484023
42
-0.41421356237310364
0
LWPOLYLINE
5
169
100
AcDbEntity
8
0
100
AcDbPolyline
90
8
70
1
43
0.0
10
-194.99702831735195
20
29.307393009484038
10
-194.99702831735198
20
42.692793009484035
42
-0.41421356237304385
10
-194.69222831735195
20
42.997593009484021
10
-181.306828317352
20
42.997593009483985
42
-0.41421356237307799
10
-181.00202831735197
20
42.692793009483992
10
-181.002028317352
20
29.307393009484031
42
-0.41421356237312917
10
-181.306828317352
20
29.002593009484059
10
-194.69222831735195
20
29.002593009484023
42
-0.41421356237310364
0
LWPOLYLINE
5
170
100
AcDbEntity
8
0
100
AcDbPolyline
90
8
70
1
43
0.0
10
-175.99702831735198
20
29.307393009484038
10
-175.997028317352
20
42.692793009484035
42
-0.41421356237304385
10
-175.69222831735198
20
42.997593009484021
10
-162.30682831735203
20
42.99759300948395
42
-0.41421356237307799
10
-162.002028317352
20
42.692793009483992
10
-162.002028317352
20
29.307393009484031
42
-0.41421356237309503
10
-162.30682831735197
20
29.002593009484059
10
-175.69222831735198
20
29.002593009484023
42
-0.41421356237310364
0
LWPOLYLINE
5
171
100
AcDbEntity
8
0
100
AcDbPolyline
90
8
70
1
43
0.0
10
-156.99702831735198
20
29.307393009484038
10
-156.997028317352
20
42.692793009484035
42
-0.41421356237302676
10
-156.69222831735198
20
42.997593009484021
10
-143.30682831735197
20
42.997593009483964
42
-0.41421356237307799
10
-143.00202831735197
20
42.692793009483992
10
-143.002028317352
20
29.307393009484031
42
-0.41421356237309503
10
-143.30682831735197
20
29.002593009484059
10
-156.69222831735195
20
29.002593009484023
42
-0.41421356237310364
0
LWPOLYLINE
5
172
100
AcDbEntity
8
0
100
AcDbPolyline
90
8
70
1
43
0.0
10
-137.99702831735198
20
29.307393009484038
10
-137.997028317352
20
42.692793009484035
42
-0.41421356237304385
10
-137.69222831735198
20
42.997593009484021
10
-124.30682831735197
20
42.997593009483964
42
-0.41421356237307799
10
-124.00202831735199
20
42.692793009483992
10
-124.002028317352
20
29.307393009484031
42
-0.41421356237309503
10
-124.30682831735197
20
29.002593009484059
10
-137.69222831735198
20
29.002593009484023
42
-0.41421356237310364
0
LWPOLYLINE
5
173
100
AcDbEntity
8
0
100
AcDbPolyline
90
8
70
1
43
0.0
10
-118.99702831735198
20
29.307393009484038
10
-118.997028317352
20
42.692793009484035
42
-0.41421356237304385
10
-118.69222831735198
20
42.997593009484021
10
-105.30682831735197
20
42.997593009483964
42
-0.41421356237307799
10
-105.00202831735197
20
42.692793009483992
10
-105.002028317352
20
29.307393009484031
42
-0.41421356237309503
10
-105.30682831735197
20
29.002593009484059
10
-118.69222831735198
20
29.002593009484023
42
-0.41421356237310364
0
LWPOLYLINE
5
174
100
AcDbEntity
8
0
100
AcDbPolyline
90
8
70
1
43
0.0
10
-99.997028317351976
20
29.307393009484038
10
-99.997028317352033
20
42.692793009484035
42
-0.41421356237304385
10
-99.692228317351976
20
42.997593009484021
10
-86.306828317351986
20
42.997593009483985
42
-0.41421356237307799
10
-86.002028317351972
20
42.692793009483992
10
-86.002028317352014
20
29.307393009484031
42
-0.41421356237309503
10
-86.306828317351986
20
29.002593009484059
10
-99.692228317351976
20
29.002593009484041
42
-0.41421356237310364
0
LWPOLYLINE
5
175
100
AcDbEntity
8
0
100
AcDbPolyline
90
8
70
1
43
0.0
10
-80.997028317351976
20
29.307393009484038
10
-80.997028317352004
20
42.692793009484035
42
-0.41421356237304385
10
-80.692228317351962
20
42.997593009484021
10
-67.306828317351972
20
42.997593009483978
42
-0.41421356237308649
10
-67.002028317351972
20
42.692793009483992
10
-67.002028317352
20
29.307393009484031
42
-0.41421356237309503
10
-67.306828317351972
20
29.002593009484059
10
-80.692228317351947
20
29.002593009484023
42
-0.41421356237312068
0
LWPOLYLINE
5
176
100
AcDbEntity
8
0
100
AcDbPolyline
90
8
70
1
43
0.0
10
-61.997028317351983
20
29.307393009484038
10
-61.997028317352019
20
42.692793009484035
42
-0.41421356237304385
10
-61.692228317351976
20
42.997593009484021
10
-48.306828317351972
20
42.997593009483964
42
-0.41421356237307799
10
-48.002028317351986
20
42.692793009483992
10
-48.002028317352
20
29.307393009484031
42
-0.41421356237308649
10
-48.306828317351965
20
29.002593009484059
10
-61.692228317351976
20
29.002593009484023
42
-0.41421356237310364
0
LWPOLYLINE
5
177
100
AcDbEntity
8
0
100
AcDbPolyline
90
8
70
1
43
0.0
10
-42.997028317351969
20
29.307393009484038
10
-42.997028317352019
20
42.692793009484035
42
-0.41421356237305235
10
-42.692228317351962
20
42.997593009484021
10
-29.306828317351968
20
42.997593009483985
42
-0.41421356237308221
10
-29.002028317351957
20
42.692793009483992
10
-29.002028317352
20
29.307393009484031
42
-0.41421356237309503
10
-29.306828317351972
20
29.002593009484059
10
-42.692228317351976
20
29.002593009484031
42
-0.41421356237310364
0
LWPOLYLINE
5
178
100
AcDbEntity
8
0
100
AcDbPolyline
90
8
70
1
43
0.0
10
-23.997028317351969
20
29.307393009484038
10
-23.997028317352012
20
42.692793009484035
42
-0.41421356237304385
10
-23.692228317351969
20
42.997593009484021
10
-10.306828317351968
20
42.997593009483964
42
-0.41421356237307155
10
-10.002028317351972
20
42.692793009484006
10
-10.002028317351996
20
29.307393009484031
42
-0.41421356237310364
10
-10.306828317351977
20
29.002593009484059
10
-23.692228317351969
20
29.002593009484031
42
-0.41421356237310364
0
LWPOLYLINE
5
179
100
AcDbEntity
8
0
100
AcDbPolyline
90
8
70
1
43
0.0
10
-232.99702831735198
20
48.307393009484052
10
-232.99702831735192
20
61.692793009484049
42
-0.41421356237307799
10
-232.69222831735195
20
61.997593009484
10
-219.30682831735197
20
61.997593009484042
42
-0.41421356237310364
10
-219.00202831735197
20
61.692793009484028
10
-219.00202831735191
20
48.307393009484016
42
-0.41421356237309503
10
-219.30682831735197
20
48.002593009483974
10
-232.69222831735195
20
48.002593009484009
42
-0.41421356237312917
0
LWPOLYLINE
5
180
100
AcDbEntity
8
0
100
AcDbPolyline
90
8
70
1
43
0.0
10
-213.99702831735195
20
48.307393009484052
10
-213.99702831735192
20
61.692793009484049
42
-0.41421356237307799
10
-213.69222831735192
20
61.997593009484007
10
-200.30682831735194
20
61.997593009484042
42
-0.41421356237310364
10
-200.00202831735194
20
61.692793009484028
10
-200.00202831735191
20
48.307393009484016
42
-0.41421356237309503
10
-200.30682831735194
20
48.002593009483974
10
-213.69222831735192
20
48.002593009484009
42
-0.41421356237312917
0
LWPOLYLINE
5
181
100
AcDbEntity
8
0
100
AcDbPolyline
90
8
70
1
43
0.0
10
-194.99702831735195
20
48.307393009484052
10
-194.99702831735192
20
61.692793009484049
42
-0.41421356237307799
10
-194.69222831735195
20
61.997593009484007
10
-181.30682831735197
20
61.997593009484042
42
-0.41421356237310364
10
-181.00202831735197
20
61.692793009484028
10
-181.00202831735191
20
48.307393009484016
42
-0.41421356237312917
10
-181.306828317352
20
48.002593009483974
10
-194.69222831735195
20
48.002593009484009
42
-0.41421356237312917
0
LWPOLYLINE
5
182
100
AcDbEntity
8
0
100
AcDbPolyline
90
8
70
1
43
0.0
10
-175.99702831735192
20
48.307393009484052
10
-175.99702831735192
20
61.692793009484049
42
-0.41421356237307799
10
-175.69222831735198
20
61.997593009484007
10
-162.30682831735197
20
61.997593009484042
42
-0.41421356237309503
10
-162.00202831735197
20
61.692793009484035
10
-162.00202831735194
20
48.307393009484016
42
-0.4142135623730609
10
-162.30682831735194
20
48.002593009483974
10
-175.69222831735198
20
48.002593009484045
42
-0.41421356237312917
0
LWPOLYLINE
5
183
100
AcDbEntity
8
0
100
AcDbPolyline
90
8
70
1
43
0.0
10
-156.99702831735198
20
48.307393009484052
10
-156.99702831735189
20
61.692793009484049
42
-0.41421356237304385
10
-156.69222831735195
20
61.997593009484007
10
-143.30682831735197
20
61.997593009484021
42
-0.41421356237309503
10
-143.00202831735197
20
61.692793009484035
10
-143.00202831735191
20
48.307393009484016
42
-0.41421356237309503
10
-143.30682831735197
20
48.002593009483974
10
-156.69222831735192
20
48.002593009483974
42
-0.41421356237312917
0
LWPOLYLINE
5
184
100
AcDbEntity
8
0
100
AcDbPolyline
90
8
70
1
43
0.0
10
-137.99702831735198
20
48.307393009484052
10
-137.99702831735192
20
61.692793009484049
42
-0.41421356237307799
10
-137.69222831735195
20
61.997593009484007
10
-124.30682831735196
20
61.997593009484021
42
-0.41421356237309503
10
-124.00202831735197
20
61.692793009484035
10
-124.00202831735191
20
48.307393009484016
42
-0.41421356237309503
10
-124.30682831735196
20
48.002593009483974
10
-137.69222831735195
20
48.002593009484009
42
-0.41421356237312917
0
LWPOLYLINE
5
185
100
AcDbEntity
8
0
100
AcDbPolyline
90
8
70
1
43
0.0
10
-118.99702831735196
20
48.307393009484052
10
-118.99702831735192
20
61.692793009484049
42
-0.41421356237307799
10
-118.69222831735195
20
61.997593009484007
10
-105.30682831735194
20
61.997593009484021
42
-0.41421356237309503
10
-105.00202831735196
20
61.692793009484035
10
-105.00202831735191
20
48.307393009484016
42
-0.41421356237309503
10
-105.30682831735194
20
48.002593009483974
10
-118.69222831735195
20
48.002593009484009
42
-0.41421356237312917
0
LWPOLYLINE
5
186
100
AcDbEntity
8
0
100
AcDbPolyline
90
8
70
1
43
0.0
10
-99.997028317351976
20
48.307393009484052
10
-99.997028317351933
20
61.692793009484049
42
-0.41421356237307799
10
-99.692228317351962
20
61.997593009484007
10
-86.306828317351972
20
61.997593009484021
42
-0.41421356237309503
10
-86.002028317351972
20
61.692793009484035
10
-86.002028317351915
20
48.307393009484016
42
-0.41421356237309503
10
-86.306828317351972
20
48.002593009483974
10
-99.692228317351962
20
48.002593009484009
42
-0.41421356237312917
0
LWPOLYLINE
5
187
100
AcDbEntity
8
0
100
AcDbPolyline
90
8
70
1
43
0.0
10
-80.997028317351976
20
48.307393009484052
10
-80.997028317351933
20
61.692793009484049
42
-0.41421356237307799
10
-80.692228317351962
20
61.997593009484007
10
-67.306828317351972
20
61.997593009484021
42
-0.41421356237310364
10
-67.002028317351972
20
61.692793009484035
10
-67.002028317351929
20
48.307393009484016
42
-0.41421356237309503
10
-67.306828317351972
20
48.002593009483974
10
-80.692228317351962
20
48.002593009484009
42
-0.41421356237312917
0
LWPOLYLINE
5
188
100
AcDbEntity
8
0
100
AcDbPolyline
90
8
70
1
43
0.0
10
-61.997028317351955
20
48.307393009484052
10
-61.997028317351941
20
61.692793009484049
42
-0.41421356237307799
10
-61.692228317351969
20
61.997593009484007
10
-48.306828317351965
20
61.997593009484035
42
-0.41421356237309503
10
-48.002028317351972
20
61.692793009484035
10
-48.002028317351922
20
48.307393009484016
42
-0.41421356237308649
10
-48.306828317351957
20
48.002593009483974
10
-61.692228317351969
20
48.002593009484031
42
-0.41421356237312917
0
LWPOLYLINE
5
189
100
AcDbEntity
8
0
100
AcDbPolyline
90
8
70
1
43
0.0
10
-42.997028317351962
20
48.307393009484052
10
-42.997028317351933
20
61.692793009484049
42
-0.41421356237307799
10
-42.692228317351962
20
61.997593009484007
10
-29.306828317351957
20
61.997593009484035
42
-0.41421356237309931
10
-29.002028317351957
20
61.692793009484035
10
-29.002028317351922
20
48.307393009484016
42
-0.41421356237310364
10
-29.306828317351972
20
48.002593009483974
10
-42.692228317351962
20
48.002593009484016
42
-0.41421356237312917
0
LWPOLYLINE
5
190
100
AcDbEntity
8
0
100
AcDbPolyline
90
8
70
1
43
0.0
10
-23.997028317351948
20
48.307393009484052
10
-23.997028317351933
20
61.692793009484049
42
-0.41421356237307799
10
-23.692228317351962
20
61.997593009484007
10
-10.306828317351959
20
61.997593009484042
42
-0.4142135623730972
10
-10.002028317351954
20
61.692793009484035
10
-10.002028317351916
20
48.307393009484016
42
-0.41421356237310364
10
-10.306828317351968
20
48.002593009483974
10
-23.692228317351962
20
48.002593009484031
42
-0.41421356237312917
0
LWPOLYLINE
5
191
100
AcDbEntity
8
0
100
AcDbPolyline
90
8
70
1
43
0.0
10
-232.99702831735198
20
67.307393009484016
10
-232.99702831735192
20
80.692793009484021
42
-0.41421356237316331
10
-232.69222831735195
20
80.997593009484063
10
-219.30682831735197
20
80.997593009484092
42
-0.41421356237312917
10
-219.00202831735197
20
80.692793009484063
10
-219.002028317352
20
67.307393009484002
42
-0.41421356237309503
10
-219.30682831735197
20
67.002593009484031
10
-232.69222831735195
20
67.002593009484002
42
-0.41421356237310364
0
LWPOLYLINE
5
192
100
AcDbEntity
8
0
100
AcDbPolyline
90
8
70
1
43
0.0
10
-213.99702831735195
20
67.307393009484016
10
-213.99702831735192
20
80.692793009484021
42
-0.41421356237316331
10
-213.69222831735192
20
80.997593009484063
10
-200.30682831735194
20
80.997593009484092
42
-0.41421356237312917
10
-200.00202831735194
20
80.692793009484063
10
-200.00202831735197
20
67.307393009484002
42
-0.41421356237309503
10
-200.30682831735194
20
67.002593009484031
10
-213.69222831735192
20
67.002593009484002
42
-0.41421356237310364
0
LWPOLYLINE
5
193
100
AcDbEntity
8
0
100
AcDbPolyline
90
8
70
1
43
0.0
10
-194.99702831735195
20
67.307393009484016
10
-194.99702831735192
20
80.692793009484021
42
-0.41421356237316331
10
-194.69222831735195
20
80.997593009484063
10
-181.30682831735197
20
80.997593009484092
42
-0.41421356237312917
10
-181.00202831735197
20
80.692793009484063
10
-181.002028317352
20
67.307393009484002
42
-0.41421356237312917
10
-181.306828317352
20
67.002593009484031
10
-194.69222831735195
20
67.002593009484002
42
-0.41421356237310364
0
LWPOLYLINE
5
194
100
AcDbEntity
8
0
100
AcDbPolyline
90
8
70
1
43
0.0
10
-175.99702831735192
20
67.307393009484016
10
-175.99702831735192
20
80.692793009484021
42
-0.41421356237316331
10
-175.69222831735198
20
80.997593009484063
10
-162.30682831735197
20
80.997593009484092
42
-0.41421356237312917
10
-162.00202831735197
20
80.692793009484063
10
-162.002028317352
20
67.307393009484002
42
-0.4142135623730609
10
-162.30682831735194
20
67.002593009484031
10
-175.69222831735198
20
67.002593009484031
42
-0.41421356237310364
0
LWPOLYLINE
5
195
100
AcDbEntity
8
0
100
AcDbPolyline
90
8
70
1
43
0.0
10
-156.99702831735198
20
67.307393009484016
10
-156.99702831735189
20
80.692793009484021
42
-0.41421356237312917
10
-156.69222831735195
20
80.997593009484063
10
-143.30682831735197
20
80.997593009484063
42
-0.41421356237312917
10
-143.00202831735197
20
80.692793009484063
10
-143.00202831735197
20
67.307393009484002
42
-0.41421356237309503
10
-143.30682831735197
20
67.002593009484031
10
-156.69222831735192
20
67.002593009483959
42
-0.41421356237310364
0
LWPOLYLINE
5
196
100
AcDbEntity
8
0
100
AcDbPolyline
90
8
70
1
43
0.0
10
-99.997028317351948
20
67.307393009484016
10
-99.997028317351933
20
80.692793009484021
42
-0.41421356237316331
10
-99.692228317351962
20
80.997593009484063
10
-86.306828317351972
20
80.997593009484092
42
-0.41421356237312917
10
-86.002028317351957
20
80.692793009484063
10
-86.002028317352
20
67.307393009484002
42
-0.41421356237309503
10
-86.306828317351972
20
67.002593009484031
10
-99.692228317351947
20
67.002593009484016
42
-0.41421356237310364
0
LWPOLYLINE
5
197
100
AcDbEntity
8
0
100
AcDbPolyline
90
8
70
1
43
0.0
10
-80.997028317351933
20
67.307393009484016
10
-80.997028317351791
20
80.692793009484021
42
-0.41421356237316331
10
-80.692228317351962
20
80.997593009483921
10
-67.306828317351957
20
80.997593009484078
42
-0.41421356237313772
10
-67.002028317351957
20
80.692793009484063
10
-67.002028317351986
20
67.307393009484002
42
-0.41421356237309503
10
-67.306828317351957
20
67.002593009484031
10
-80.692228317351919
20
67.002593009484031
42
-0.41421356237312068
0
LWPOLYLINE
5
198
100
AcDbEntity
8
0
100
AcDbPolyline
90
8
70
1
43
0.0
10
-61.997028317351948
20
67.307393009484016
10
-61.997028317351791
20
80.692793009484021
42
-0.41421356237316331
10
-61.692228317351962
20
80.997593009483921
10
-48.306828317351957
20
80.997593009484092
42
-0.41421356237312917
10
-48.00202831735195
20
80.692793009484063
10
-48.002028317351986
20
67.307393009484002
42
-0.41421356237307799
10
-48.306828317351943
20
67.002593009484031
10
-61.692228317351962
20
67.002593009484016
42
-0.41421356237310364
0
LWPOLYLINE
5
199
100
AcDbEntity
8
0
100
AcDbPolyline
90
8
70
1
43
0.0
10
-42.997028317351955
20
67.307393009484016
10
-42.997028317351784
20
80.692793009484021
42
-0.41421356237316331
10
-42.692228317351955
20
80.997593009483921
10
-29.30682831735195
20
80.997593009484078
42
-0.41421356237313345
10
-29.002028317351957
20
80.692793009484063
10
-29.002028317351982
20
67.307393009484002
42
-0.41421356237310364
10
-29.306828317351965
20
67.002593009484031
10
-42.692228317351955
20
67.002593009484002
42
-0.41421356237310364
0
LWPOLYLINE
5
200
100
AcDbEntity
8
0
100
AcDbPolyline
90
8
70
1
43
0.0
10
-23.997028317351948
20
67.307393009484016
10
-23.997028317351781
20
80.692793009484021
42
-0.41421356237316331
10
-23.692228317351951
20
80.997593009483921
10
-10.30682831735195
20
80.997593009484078
42
-0.41421356237313134
10
-10.002028317351952
20
80.692793009484063
10
-10.002028317351979
20
67.307393009484002
42
-0.41421356237310364
10
-10.306828317351959
20
67.002593009484031
10
-23.692228317351951
20
67.002593009484002
42
-0.41421356237310364
0
CIRCLE
5
201
100
AcDbEntity
8
0
100
AcDbCircle
10
-57.893220862560533
20
94.50037583665052
30
0
40
1.0250000000000004
0
CIRCLE
5
202
100
AcDbEntity
8
0
100
AcDbCircle
10
-36.113220862560489
20
94.50037583665052
30
0
40
1.0250000000000004
0
CIRCLE
5
203
100
AcDbEntity
8
0
100
AcDbCircle
10
-121.50022100858311
20
94.50037583665052
30
0
40
1.0249999999999915
0
CIRCLE
5
204
100
AcDbEntity
8
0
100
AcDbCircle
10
-239.50022100858317
20
136.50037583665056
30
0
40
1.0249999999999915
0
CIRCLE
5
205
100
AcDbEntity
8
0
100
AcDbCircle
10
-3.5002210085831287
20
136.50037583665056
30
0
40
1.0249999999999999
0
CIRCLE
5
206
100
AcDbEntity
8
0
100
AcDbCircle
10
-121.50022100858311
20
178.50037583665056
30
0
40
1.0250000000000092
0
CIRCLE
5
207
100
AcDbEntity
8
0
100
AcDbCircle
10
-4.5253472744301959
20
95.525502102497612
30
0
40
1.024999999999997
0
CIRCLE
5
208
100
AcDbEntity
8
0
100
AcDbCircle
10
-238.47509474273605
20
95.52550210249764
30
0
40
1.0249999999999915
0
CIRCLE
5
209
100
AcDbEntity
8
0
100
AcDbCircle
10
-4.5253472744302137
20
177.4752495708035
30
0
40
1.0250000000000028
0
CIRCLE
5
210
100
AcDbEntity
8
0
100
AcDbCircle
10
-238.47509474273605
20
177.4752495708035
30
0
40
1.0249999999999915
0
LINE
5
211
100
AcDbEntity
8
0
100
AcDbLine
10
-52.893220862560533
20
98.000375836650534
30
0
11
-52.893220862560533
21
91.000375836650505
31
0
0
LINE
5
212
100
AcDbEntity
8
0
100
AcDbLine
10
-41.113220862560489
20
91.000375836650505
30
0
11
-41.113220862560489
21
98.000375836650534
31
0
0
LINE
5
213
100
AcDbEntity
8
0
100
AcDbLine
10
-52.893220862560533
20
91.000375836650505
30
0
11
-236.00022100858314
21
91.000375836650548
31
0
0
ARC
5
214
100
AcDbEntity
8
0
100
AcDbCircle
10
-236.00022100858314
20
98.000375836650534
30
0
40
6.9999999999999929
100
AcDbArc
50
180
51
270
0
LINE
5
215
100
AcDbEntity
8
0
100
AcDbLine
10
-243.00022100858314
20
98.000375836650534
30
0
11
-243.00022100858311
21
175.00037583665056
31
0
0
ARC
5
216
100
AcDbEntity
8
0
100
AcDbCircle
10
-236.00022100858314
20
175.00037583665056
30
0
40
6.9999999999999929
100
AcDbArc
50
90
51
180
0
LINE
5
217
100
AcDbEntity
8
0
100
AcDbLine
10
-236.00022100858314
20
182.00037583665053
30
0
11
-7.0002210085831251
21
182.00037583665056
31
0
0
ARC
5
218
100
AcDbEntity
8
0
100
AcDbCircle
10
-7.0002210085831251
20
175.00037583665056
30
0
40
6.999999999999992
100
AcDbArc
50
0
51
90
0
LINE
5
219
100
AcDbEntity
8
0
100
AcDbLine
10
-0.00022100858313334193
20
175.00037583665056
30
0
11
-0.00022100858313611749
21
98.00037583665052
31
0
0
ARC
5
220
100
AcDbEntity
8
0
100
AcDbCircle
10
-7.0002210085831251
20
98.000375836650505
30
0
40
6.9999999999999929
100
AcDbArc
50
-90.000000000000099
51
0
0
LINE
5
221
100
AcDbEntity
8
0
100
AcDbLine
10
-7.0002210085831376
20
91.000375836650505
30
0
11
-41.113220862560489
21
91.000375836650505
31
0
0
LINE
5
222
100
AcDbEntity
8
0
100
AcDbLine
10
-41.113220862560489
20
98.000375836650534
30
0
11
-7.0002210085831251
21
98.000375836650505
31
0
0
LINE
5
223
100
AcDbEntity
8
0
100
AcDbLine
10
-7.0002210085831251
20
98.000375836650505
30
0
11
-7.0002210085831251
21
175.00037583665056
31
0
0
LINE
5
224
100
AcDbEntity
8
0
100
AcDbLine
10
-7.0002210085831251
20
175.00037583665056
30
0
11
-236.00022100858314
21
175.00037583665056
31
0
0
LINE
5
225
100
AcDbEntity
8
0
100
AcDbLine
10
-236.00022100858314
20
175.00037583665056
30
0
11
-236.00022100858314
21
98.000375836650534
31
0
0
LINE
5
226
100
AcDbEntity
8
0
100
AcDbLine
10
-236.00022100858314
20
98.000375836650534
30
0
11
-52.893220862560533
21
98.000375836650534
31
0
0
ENDSEC
0
SECTION
2
OBJECTS
0
DICTIONARY
5
C
100
AcDbDictionary
3
ACAD_GROUP
350
D
3
ACAD_MLINESTYLE
350
17
0
DICTIONARY
5
D
100
AcDbDictionary
0
DICTIONARY
5
1A
330
C
100
AcDbDictionary
0
DICTIONARY
5
17
100
AcDbDictionary
0
ENDSEC
0
EOF
