0
SECTION
2
HEADER
9
$INSUNITS
70
4
9
$ACADVER
1
AC1014
9
$HANDSEED
5
FFFF
0
ENDSEC
0
SECTION
2
TABLES
0
TABLE
2
VPORT
5
8
100
AcDbSymbolTable
0
ENDTAB
0
TABLE
2
LTYPE
5
5
100
AcDbSymbolTable
0
LTYPE
5
14
100
AcDbSymbolTableRecord
100
AcDbLinetypeTableRecord
2
BYBLOCK
70
0
0
LTYPE
5
15
100
AcDbSymbolTableRecord
100
AcDbLinetypeTableRecord
2
BYLAYER
70
0
0
ENDTAB
0
TABLE
2
LAYER
5
2
100
AcDbSymbolTable
70
2
0
LAYER
5
50
100
AcDbSymbolTableRecord
100
AcDbLayerTableRecord
2
0
70
0
6
CONTINUOUS
0
ENDTAB
0
TABLE
2
STYLE
5
3
100
AcDbSymbolTable
70
1
0
STYLE
5
11
100
AcDbSymbolTableRecord
100
AcDbTextStyleTableRecord
2
STANDARD
70
0
0
ENDTAB
0
TABLE
2
VIEW
5
6
100
AcDbSymbolTable
70
0
0
ENDTAB
0
TABLE
2
UCS
5
7
100
AcDbSymbolTable
70
0
0
ENDTAB
0
TABLE
2
APPID
5
9
100
AcDbSymbolTable
70
2
0
APPID
5
12
100
AcDbSymbolTableRecord
100
AcDbRegAppTableRecord
2
ACAD
70
0
0
ENDTAB
0
TABLE
2
DIMSTYLE
5
A
100
AcDbSymbolTable
70
1
0
ENDTAB
0
TABLE
2
BLOCK_RECORD
5
1
100
AcDbSymbolTable
70
1
0
BLOCK_RECORD
5
1F
100
AcDbSymbolTableRecord
100
AcDbBlockTableRecord
2
*MODEL_SPACE
0
BLOCK_RECORD
5
1B
100
AcDbSymbolTableRecord
100
AcDbBlockTableRecord
2
*PAPER_SPACE
0
ENDTAB
0
ENDSEC
0
SECTION
2
BLOCKS
0
BLOCK
5
20
100
AcDbEntity
100
AcDbBlockBegin
2
*MODEL_SPACE
0
ENDBLK
5
21
100
AcDbEntity
100
AcDbBlockEnd
0
BLOCK
5
1C
100
AcDbEntity
100
AcDbBlockBegin
2
*PAPER_SPACE
0
ENDBLK
5
1D
100
AcDbEntity
100
AcDbBlockEnd
0
ENDSEC
0
SECTION
2
ENTITIES
0
CIRCLE
5
100
100
AcDbEntity
8
0
100
AcDbCircle
10
300.89289010993195
20
-3.5004551011325091
30
0
40
1.0250000000000004
0
CIRCLE
5
101
100
AcDbEntity
8
0
100
AcDbCircle
10
279.11289010993193
20
-3.5004551011325091
30
0
40
1.0250000000000004
0
CIRCLE
5
102
100
AcDbEntity
8
0
100
AcDbCircle
10
364.4998902559546
20
-3.5004551011325269
30
0
40
1.0249999999999915
0
CIRCLE
5
103
100
AcDbEntity
8
0
100
AcDbCircle
10
482.4998902559546
20
-45.500455101132538
30
0
40
1.0249999999999915
0
CIRCLE
5
104
100
AcDbEntity
8
0
100
AcDbCircle
10
246.49989025595457
20
-45.500455101132538
30
0
40
1.0249999999999999
0
CIRCLE
5
105
100
AcDbEntity
8
0
100
AcDbCircle
10
364.4998902559546
20
-87.500455101132545
30
0
40
1.0250000000000092
0
CIRCLE
5
106
100
AcDbEntity
8
0
100
AcDbCircle
10
247.52501652180166
20
-4.5255813669795941
30
0
40
1.024999999999997
0
CIRCLE
5
107
100
AcDbEntity
8
0
100
AcDbCircle
10
481.47476399010748
20
-4.5255813669796119
30
0
40
1.0249999999999915
0
CIRCLE
5
108
100
AcDbEntity
8
0
100
AcDbCircle
10
247.52501652180166
20
-86.475328835285467
30
0
40
1.0250000000000028
0
CIRCLE
5
109
100
AcDbEntity
8
0
100
AcDbCircle
10
481.47476399010748
20
-86.475328835285467
30
0
40
1.0249999999999915
0
LINE
5
110
100
AcDbEntity
8
0
100
AcDbLine
10
478.9998902559546
20
-84.000455101132559
30
0
11
249.99989025595457
21
-84.000455101132559
31
0
0
LINE
5
111
100
AcDbEntity
8
0
100
AcDbLine
10
249.99989025595457
20
-84.000455101132559
30
0
11
249.99989025595457
21
-7.0004551011325233
31
0
0
LINE
5
112
100
AcDbEntity
8
0
100
AcDbLine
10
249.99989025595457
20
-7.0004551011325233
30
0
11
478.9998902559546
21
-7.0004551011325233
31
0
0
LINE
5
113
100
AcDbEntity
8
0
100
AcDbLine
10
478.9998902559546
20
-7.0004551011325233
30
0
11
478.9998902559546
21
-84.000455101132559
31
0
0
LWPOLYLINE
5
114
100
AcDbEntity
8
0
100
AcDbPolyline
90
8
70
1
43
0.0
10
478.9998902559546
20
-0.00045510113256597151
42
-0.41421356237309509
10
485.99989025595454
20
-7.0004551011325233
10
485.9998902559546
20
-84.000455101132559
42
-0.41421356237309503
10
478.9998902559546
20
-91.000455101132545
10
249.99989025595457
20
-91.000455101132545
42
-0.41421356237309503
10
242.9998902559546
20
-84.000455101132559
10
242.99989025595454
20
-7.0004551011325375
42
-0.41421356237309559
10
249.99989025595457
20
-0.00045510113249491724
0
CIRCLE
5
115
100
AcDbEntity
8
0
100
AcDbCircle
10
440.50034367304113
20
-117.50044382960806
30
0
40
1.5749999999999886
0
CIRCLE
5
116
100
AcDbEntity
8
0
100
AcDbCircle
10
326.50034367304113
20
-136.50044382960812
30
0
40
1.5749999999999886
0
CIRCLE
5
117
100
AcDbEntity
8
0
100
AcDbCircle
10
440.50034367304113
20
-155.50044382960817
30
0
40
1.5749999999999886
0
CIRCLE
5
118
100
AcDbEntity
8
0
100
AcDbCircle
10
288.50034367304113
20
-155.50044382960817
30
0
40
1.5749999999999886
0
CIRCLE
5
119
100
AcDbEntity
8
0
100
AcDbCircle
10
288.50034367304113
20
-117.50044382960806
30
0
40
1.5749999999999886
0
CIRCLE
5
120
100
AcDbEntity
8
0
100
AcDbCircle
10
402.50034367304113
20
-136.50044382960812
30
0
40
1.5749999999999886
0
CIRCLE
5
121
100
AcDbEntity
8
0
100
AcDbCircle
10
300.89334352701849
20
-94.500443829608045
30
0
40
1.0250000000000004
0
CIRCLE
5
122
100
AcDbEntity
8
0
100
AcDbCircle
10
279.1133435270184
20
-94.500443829608045
30
0
40
1.0250000000000004
0
CIRCLE
5
123
100
AcDbEntity
8
0
100
AcDbCircle
10
364.50034367304107
20
-94.500443829608045
30
0
40
1.0249999999999915
0
CIRCLE
5
124
100
AcDbEntity
8
0
100
AcDbCircle
10
482.50034367304113
20
-136.50044382960806
30
0
40
1.0249999999999915
0
CIRCLE
5
125
100
AcDbEntity
8
0
100
AcDbCircle
10
246.50034367304107
20
-136.50044382960806
30
0
40
1.0249999999999999
0
CIRCLE
5
126
100
AcDbEntity
8
0
100
AcDbCircle
10
364.50034367304107
20
-178.50044382960812
30
0
40
1.0250000000000092
0
CIRCLE
5
127
100
AcDbEntity
8
0
100
AcDbCircle
10
247.52546993888814
20
-95.525570095455123
30
0
40
1.024999999999997
0
CIRCLE
5
128
100
AcDbEntity
8
0
100
AcDbCircle
10
481.47521740719401
20
-95.525570095455166
30
0
40
1.0249999999999915
0
CIRCLE
5
129
100
AcDbEntity
8
0
100
AcDbCircle
10
247.52546993888814
20
-177.475317563761
30
0
40
1.0250000000000028
0
CIRCLE
5
130
100
AcDbEntity
8
0
100
AcDbCircle
10
481.47521740719401
20
-177.475317563761
30
0
40
1.0249999999999915
0
LWPOLYLINE
5
131
100
AcDbEntity
8
0
100
AcDbPolyline
90
8
70
1
43
0.0
10
479.00034367304107
20
-91.000443829608102
42
-0.41421356237309503
10
486.00034367304102
20
-98.000443829608059
10
486.00034367304102
20
-175.00044382960809
42
-0.41421356237309503
10
479.00034367304107
20
-182.00044382960809
10
250.00034367304107
20
-182.00044382960809
42
-0.41421356237309503
10
243.00034367304107
20
-175.00044382960809
10
243.00034367304107
20
-98.000443829608059
42
-0.41421356237309653
10
250.00034367304107
20
-91.000443829608031
0
CIRCLE
5
132
100
AcDbEntity
8
0
100
AcDbCircle
10
300.89289010993195
20
-3.5004551011325091
30
0
40
1.0250000000000004
0
CIRCLE
5
133
100
AcDbEntity
8
0
100
AcDbCircle
10
279.11289010993193
20
-3.5004551011325091
30
0
40
1.0250000000000004
0
CIRCLE
5
134
100
AcDbEntity
8
0
100
AcDbCircle
10
364.4998902559546
20
-3.5004551011325269
30
0
40
1.0249999999999915
0
CIRCLE
5
135
100
AcDbEntity
8
0
100
AcDbCircle
10
482.4998902559546
20
-45.500455101132538
30
0
40
1.0249999999999915
0
CIRCLE
5
136
100
AcDbEntity
8
0
100
AcDbCircle
10
246.49989025595457
20
-45.500455101132538
30
0
40
1.0249999999999999
0
CIRCLE
5
137
100
AcDbEntity
8
0
100
AcDbCircle
10
364.4998902559546
20
-87.500455101132545
30
0
40
1.0250000000000092
0
CIRCLE
5
138
100
AcDbEntity
8
0
100
AcDbCircle
10
247.52501652180166
20
-4.5255813669795941
30
0
40
1.024999999999997
0
CIRCLE
5
139
100
AcDbEntity
8
0
100
AcDbCircle
10
481.47476399010748
20
-4.5255813669796119
30
0
40
1.0249999999999915
0
CIRCLE
5
140
100
AcDbEntity
8
0
100
AcDbCircle
10
247.52501652180166
20
-86.475328835285467
30
0
40
1.0250000000000028
0
CIRCLE
5
141
100
AcDbEntity
8
0
100
AcDbCircle
10
481.47476399010748
20
-86.475328835285467
30
0
40
1.0249999999999915
0
LINE
5
142
100
AcDbEntity
8
0
100
AcDbLine
10
249.99989025595457
20
-84.000455101132559
30
0
11
478.9998902559546
21
-84.000455101132559
31
0
0
LINE
5
143
100
AcDbEntity
8
0
100
AcDbLine
10
478.9998902559546
20
-84.000455101132559
30
0
11
478.9998902559546
21
-7.0004551011325233
31
0
0
LINE
5
144
100
AcDbEntity
8
0
100
AcDbLine
10
478.9998902559546
20
-7.0004551011325233
30
0
11
249.99989025595457
21
-7.0004551011325233
31
0
0
LINE
5
145
100
AcDbEntity
8
0
100
AcDbLine
10
249.99989025595457
20
-7.0004551011325233
30
0
11
249.99989025595457
21
-84.000455101132559
31
0
0
LWPOLYLINE
5
146
100
AcDbEntity
8
0
100
AcDbPolyline
90
8
70
1
43
0.0
10
478.9998902559546
20
-0.00045510113256597151
42
-0.41421356237309509
10
485.99989025595454
20
-7.0004551011325233
10
485.9998902559546
20
-84.000455101132559
42
-0.41421356237309503
10
478.9998902559546
20
-91.000455101132545
10
249.99989025595457
20
-91.000455101132545
42
-0.41421356237309503
10
242.9998902559546
20
-84.000455101132559
10
242.99989025595454
20
-7.0004551011325233
42
-0.41421356237309503
10
249.99989025595457
20
-0.00045510113249602746
0
CIRCLE
5
147
100
AcDbEntity
8
0
100
AcDbCircle
10
440.50034367304113
20
-117.50044382960806
30
0
40
1.5749999999999886
0
CIRCLE
5
148
100
AcDbEntity
8
0
100
AcDbCircle
10
326.50034367304113
20
-136.50044382960812
30
0
40
1.5749999999999886
0
CIRCLE
5
149
100
AcDbEntity
8
0
100
AcDbCircle
10
440.50034367304113
20
-155.50044382960817
30
0
40
1.5749999999999886
0
CIRCLE
5
150
100
AcDbEntity
8
0
100
AcDbCircle
10
288.50034367304113
20
-155.50044382960817
30
0
40
1.5749999999999886
0
CIRCLE
5
151
100
AcDbEntity
8
0
100
AcDbCircle
10
288.50034367304113
20
-117.50044382960806
30
0
40
1.5749999999999886
0
CIRCLE
5
152
100
AcDbEntity
8
0
100
AcDbCircle
10
402.50034367304113
20
-136.50044382960812
30
0
40
1.5749999999999886
0
CIRCLE
5
153
100
AcDbEntity
8
0
100
AcDbCircle
10
300.89334352701849
20
-94.500443829608045
30
0
40
1.0250000000000004
0
CIRCLE
5
154
100
AcDbEntity
8
0
100
AcDbCircle
10
279.1133435270184
20
-94.500443829608045
30
0
40
1.0250000000000004
0
CIRCLE
5
155
100
AcDbEntity
8
0
100
AcDbCircle
10
364.50034367304107
20
-94.500443829608045
30
0
40
1.0249999999999915
0
CIRCLE
5
156
100
AcDbEntity
8
0
100
AcDbCircle
10
482.50034367304113
20
-136.50044382960806
30
0
40
1.0249999999999915
0
CIRCLE
5
157
100
AcDbEntity
8
0
100
AcDbCircle
10
246.50034367304107
20
-136.50044382960806
30
0
40
1.0249999999999999
0
CIRCLE
5
158
100
AcDbEntity
8
0
100
AcDbCircle
10
364.50034367304107
20
-178.50044382960812
30
0
40
1.0250000000000092
0
CIRCLE
5
159
100
AcDbEntity
8
0
100
AcDbCircle
10
247.52546993888814
20
-95.525570095455123
30
0
40
1.024999999999997
0
CIRCLE
5
160
100
AcDbEntity
8
0
100
AcDbCircle
10
481.47521740719401
20
-95.525570095455166
30
0
40
1.0249999999999915
0
CIRCLE
5
161
100
AcDbEntity
8
0
100
AcDbCircle
10
247.52546993888814
20
-177.475317563761
30
0
40
1.0250000000000028
0
CIRCLE
5
162
100
AcDbEntity
8
0
100
AcDbCircle
10
481.47521740719401
20
-177.475317563761
30
0
40
1.0249999999999915
0
LWPOLYLINE
5
163
100
AcDbEntity
8
0
100
AcDbPolyline
90
8
70
1
43
0.0
10
479.00034367304107
20
-91.000443829608102
42
-0.41421356237309503
10
486.00034367304102
20
-98.000443829608059
10
486.00034367304102
20
-175.00044382960809
42
-0.41421356237309503
10
479.00034367304107
20
-182.00044382960809
10
250.00034367304107
20
-182.00044382960809
42
-0.41421356237309503
10
243.00034367304107
20
-175.00044382960809
10
243.00034367304107
20
-98.000443829608059
42
-0.41421356237309653
10
250.00034367304107
20
-91.000443829608031
0
CIRCLE
5
164
100
AcDbEntity
8
0
100
AcDbCircle
10
300.89289010993195
20
-3.5004551011325091
30
0
40
1.0250000000000004
0
CIRCLE
5
165
100
AcDbEntity
8
0
100
AcDbCircle
10
279.11289010993193
20
-3.5004551011325091
30
0
40
1.0250000000000004
0
CIRCLE
5
166
100
AcDbEntity
8
0
100
AcDbCircle
10
364.4998902559546
20
-3.5004551011325269
30
0
40
1.0249999999999915
0
CIRCLE
5
167
100
AcDbEntity
8
0
100
AcDbCircle
10
482.4998902559546
20
-45.500455101132538
30
0
40
1.0249999999999915
0
CIRCLE
5
168
100
AcDbEntity
8
0
100
AcDbCircle
10
246.49989025595457
20
-45.500455101132538
30
0
40
1.0249999999999999
0
CIRCLE
5
169
100
AcDbEntity
8
0
100
AcDbCircle
10
364.4998902559546
20
-87.500455101132545
30
0
40
1.0250000000000092
0
CIRCLE
5
170
100
AcDbEntity
8
0
100
AcDbCircle
10
247.52501652180166
20
-4.5255813669795941
30
0
40
1.024999999999997
0
CIRCLE
5
171
100
AcDbEntity
8
0
100
AcDbCircle
10
481.47476399010748
20
-4.5255813669796119
30
0
40
1.0249999999999915
0
CIRCLE
5
172
100
AcDbEntity
8
0
100
AcDbCircle
10
247.52501652180166
20
-86.475328835285467
30
0
40
1.0250000000000028
0
CIRCLE
5
173
100
AcDbEntity
8
0
100
AcDbCircle
10
481.47476399010748
20
-86.475328835285467
30
0
40
1.0249999999999915
0
LINE
5
174
100
AcDbEntity
8
0
100
AcDbLine
10
249.99989025595454
20
-84.000455101132587
30
0
11
478.9998902559546
21
-84.000455101132587
31
0
0
LINE
5
175
100
AcDbEntity
8
0
100
AcDbLine
10
249.99989025595457
20
-7.0004551011325233
30
0
11
249.99989025595454
21
-84.000455101132587
31
0
0
LINE
5
176
100
AcDbEntity
8
0
100
AcDbLine
10
478.9998902559546
20
-7.0004551011325589
30
0
11
249.99989025595457
21
-7.0004551011325233
31
0
0
LINE
5
177
100
AcDbEntity
8
0
100
AcDbLine
10
478.9998902559546
20
-84.000455101132587
30
0
11
478.9998902559546
21
-7.0004551011325589
31
0
0
LWPOLYLINE
5
178
100
AcDbEntity
8
0
100
AcDbPolyline
90
8
70
1
43
0.0
10
485.9998902559546
20
-84.000455101132559
10
485.9998902559546
20
-7.0004551011325233
42
0.41421356237309354
10
478.9998902559546
20
-0.00045510113253044437
10
249.99989025595457
20
-0.00045510113249491724
42
0.41421356237309503
10
242.9998902559546
20
-7.0004551011325233
10
242.9998902559546
20
-84.000455101132559
42
0.41421356237309803
10
249.99989025595457
20
-91.000455101132545
10
478.9998902559546
20
-91.000455101132545
42
0.41421356237309653
0
CIRCLE
5
179
100
AcDbEntity
8
0
100
AcDbCircle
10
440.50034367304113
20
-117.50044382960806
30
0
40
1.5749999999999886
0
CIRCLE
5
180
100
AcDbEntity
8
0
100
AcDbCircle
10
326.50034367304113
20
-136.50044382960812
30
0
40
1.5749999999999886
0
CIRCLE
5
181
100
AcDbEntity
8
0
100
AcDbCircle
10
440.50034367304113
20
-155.50044382960817
30
0
40
1.5749999999999886
0
CIRCLE
5
182
100
AcDbEntity
8
0
100
AcDbCircle
10
288.50034367304113
20
-155.50044382960817
30
0
40
1.5749999999999886
0
CIRCLE
5
183
100
AcDbEntity
8
0
100
AcDbCircle
10
288.50034367304113
20
-117.50044382960806
30
0
40
1.5749999999999886
0
CIRCLE
5
184
100
AcDbEntity
8
0
100
AcDbCircle
10
402.50034367304113
20
-136.50044382960812
30
0
40
1.5749999999999886
0
CIRCLE
5
185
100
AcDbEntity
8
0
100
AcDbCircle
10
300.89334352701849
20
-94.500443829608045
30
0
40
1.0250000000000004
0
CIRCLE
5
186
100
AcDbEntity
8
0
100
AcDbCircle
10
279.1133435270184
20
-94.500443829608045
30
0
40
1.0250000000000004
0
CIRCLE
5
187
100
AcDbEntity
8
0
100
AcDbCircle
10
364.50034367304107
20
-94.500443829608045
30
0
40
1.0249999999999915
0
CIRCLE
5
188
100
AcDbEntity
8
0
100
AcDbCircle
10
482.50034367304113
20
-136.50044382960806
30
0
40
1.0249999999999915
0
CIRCLE
5
189
100
AcDbEntity
8
0
100
AcDbCircle
10
246.50034367304107
20
-136.50044382960806
30
0
40
1.0249999999999999
0
CIRCLE
5
190
100
AcDbEntity
8
0
100
AcDbCircle
10
364.50034367304107
20
-178.50044382960812
30
0
40
1.0250000000000092
0
CIRCLE
5
191
100
AcDbEntity
8
0
100
AcDbCircle
10
247.52546993888814
20
-95.525570095455123
30
0
40
1.024999999999997
0
CIRCLE
5
192
100
AcDbEntity
8
0
100
AcDbCircle
10
481.47521740719401
20
-95.525570095455166
30
0
40
1.0249999999999915
0
CIRCLE
5
193
100
AcDbEntity
8
0
100
AcDbCircle
10
247.52546993888814
20
-177.475317563761
30
0
40
1.0250000000000028
0
CIRCLE
5
194
100
AcDbEntity
8
0
100
AcDbCircle
10
481.47521740719401
20
-177.475317563761
30
0
40
1.0249999999999915
0
LWPOLYLINE
5
195
100
AcDbEntity
8
0
100
AcDbPolyline
90
8
70
1
43
0.0
10
479.00034367304107
20
-91.000443829608102
42
-0.41421356237309503
10
486.00034367304102
20
-98.000443829608059
10
486.00034367304102
20
-175.00044382960809
42
-0.41421356237309503
10
479.00034367304107
20
-182.00044382960809
10
250.00034367304107
20
-182.00044382960809
42
-0.41421356237309503
10
243.00034367304107
20
-175.00044382960809
10
243.00034367304107
20
-98.000443829608059
42
-0.41421356237309653
10
250.00034367304107
20
-91.000443829608031
0
ENDSEC
0
SECTION
2
OBJECTS
0
DICTIONARY
5
C
100
AcDbDictionary
3
ACAD_GROUP
350
D
3
ACAD_MLINESTYLE
350
17
0
DICTIONARY
5
D
100
AcDbDictionary
0
DICTIONARY
5
1A
330
C
100
AcDbDictionary
0
DICTIONARY
5
17
100
AcDbDictionary
0
ENDSEC
0
EOF
